<svg width="12" height="18" viewBox="0 0 12 18" fill="none" xmlns="http://www.w3.org/2000/svg">
<path d="M11.4609 7.8469L2.46054 0.346577C2.15457 0.0934888 1.76078 -0.0280388 1.3654 0.00860678C0.970014 0.0452523 0.605266 0.237085 0.351026 0.542095C0.0967854 0.847105 -0.0262266 1.24044 0.00892735 1.63595C0.0440813 2.03147 0.234536 2.39694 0.538585 2.65233L8.15609 8.99983L0.538585 15.3473C0.233364 15.6024 0.041857 15.9681 0.00613165 16.3643C-0.0295937 16.7604 0.0933847 17.1545 0.348052 17.46C0.602719 17.7656 0.968248 17.9575 1.36434 17.9937C1.76044 18.0299 2.15471 17.9074 2.46054 17.6531L11.4609 10.1527C11.6297 10.0117 11.7654 9.83533 11.8586 9.63612C11.9517 9.43692 12 9.21969 12 8.99978C12 8.77987 11.9517 8.56264 11.8586 8.36343C11.7654 8.16422 11.6297 7.9879 11.4609 7.8469Z" fill="#2EA8AF"/>
</svg>
