<svg width="351" height="128" viewBox="0 0 351 128" fill="none" xmlns="http://www.w3.org/2000/svg">
<g filter="url(#filter0_b_90_133)">
<rect x="2" y="1.99976" width="347" height="124" rx="30" fill="url(#paint0_linear_90_133)" fill-opacity="0.5"/>
<path d="M42.5742 56.9998H45.0938L48.7383 44.2498H48.7969L52.4297 56.9998H54.9492L59.5195 40.0896H56.7891L53.6367 53.3435H53.5781L50.0039 40.0896H47.5195L43.9453 53.3435H43.8984L40.7461 40.0896H38.0156L42.5742 56.9998ZM61.7685 56.9998H64.2998V49.863C64.2998 47.9412 65.4599 46.6052 67.206 46.6052C68.9873 46.6052 70.0185 47.824 70.0185 49.863V56.9998H72.5498V49.3826C72.5498 46.406 70.8154 44.4373 68.1787 44.4373C66.3388 44.4373 65.0146 45.2693 64.3584 46.699H64.2998V40.0896H61.7685V56.9998ZM79.0058 57.2224C80.6347 57.2224 82.0644 56.3787 82.7793 55.0544H82.8261V56.9998H85.3691V48.5037C85.3691 46.031 83.4589 44.4373 80.4472 44.4373C77.4121 44.4373 75.5722 46.0662 75.3964 48.1873L75.3847 48.3162H77.7753L77.7988 48.2107C78.0097 47.2263 78.9121 46.5349 80.3769 46.5349C81.9472 46.5349 82.8261 47.3552 82.8261 48.7146V49.6404L79.4746 49.8396C76.5566 50.0154 74.8925 51.3279 74.8925 53.4724V53.4958C74.8925 55.7107 76.5449 57.2224 79.0058 57.2224ZM77.4472 53.4373V53.4138C77.4472 52.3708 78.291 51.7029 79.8144 51.6091L82.8261 51.4216V52.3826C82.8261 53.988 81.4785 55.1951 79.6972 55.1951C78.3378 55.1951 77.4472 54.5154 77.4472 53.4373ZM92.5283 57.2458C93.0439 57.2458 93.5243 57.1873 93.8173 57.1404V55.1833C93.6298 55.2068 93.4072 55.2302 93.1376 55.2302C92.0712 55.2302 91.5087 54.8552 91.5087 53.6013V46.6873H93.8173V44.6716H91.5087V41.4607H88.9189V44.6716H87.1493V46.6873H88.9189V53.7537C88.9189 56.2146 90.0908 57.2458 92.5283 57.2458ZM102.909 42.7732C103.741 42.7732 104.386 42.1169 104.386 41.3201C104.386 40.5115 103.741 39.8552 102.909 39.8552C102.089 39.8552 101.432 40.5115 101.432 41.3201C101.432 42.1169 102.089 42.7732 102.909 42.7732ZM101.643 56.9998H104.175V44.6716H101.643V56.9998ZM111.779 57.2458C114.685 57.2458 116.795 55.699 116.795 53.449V53.4373C116.795 51.6677 115.834 50.6716 113.314 50.0857L111.31 49.6287C109.986 49.3123 109.482 48.7966 109.482 48.0349V48.0232C109.482 47.0388 110.338 46.3943 111.697 46.3943C113.127 46.3943 113.971 47.1443 114.123 48.2224L114.135 48.3044H116.514L116.502 48.1638C116.373 46.0662 114.615 44.4373 111.697 44.4373C108.861 44.4373 106.939 45.949 106.939 48.1521V48.1638C106.939 49.9568 108.099 51.0818 110.443 51.6208L112.459 52.0779C113.783 52.3943 114.228 52.8513 114.228 53.6482V53.6599C114.228 54.656 113.314 55.2888 111.791 55.2888C110.232 55.2888 109.389 54.6208 109.154 53.4841L109.131 53.3669H106.623L106.635 53.4724C106.892 55.7224 108.697 57.2458 111.779 57.2458ZM130.457 57.281C134.465 57.281 136.902 55.324 136.902 52.2419V52.2302C136.902 49.6169 135.402 48.199 131.91 47.4607L130.058 47.074C127.949 46.6169 126.988 45.8435 126.988 44.5779V44.5662C126.988 43.0896 128.324 42.0935 130.422 42.0818C132.426 42.0818 133.785 43.031 134.019 44.6013L134.031 44.7654H136.586L136.574 44.5662C136.398 41.7302 133.984 39.8083 130.457 39.8083C126.883 39.8083 124.34 41.7888 124.328 44.6716V44.6833C124.328 47.1912 125.933 48.7146 129.25 49.4177L131.09 49.8044C133.328 50.2966 134.254 51.0349 134.254 52.3943V52.406C134.254 53.988 132.824 55.0076 130.562 55.0076C128.301 55.0076 126.742 54.0349 126.508 52.4763L126.484 52.324H123.929L123.941 52.4998C124.152 55.4763 126.66 57.281 130.457 57.281ZM139.643 56.9998H150.378V54.738H142.268V49.488H149.944V47.2849H142.268V42.3513H150.378V40.0896H139.643V56.9998ZM160.76 57.281C165.646 57.281 168.681 53.9177 168.681 48.5505V48.5271C168.681 43.1716 165.635 39.8083 160.76 39.8083C155.896 39.8083 152.838 43.1599 152.838 48.5271V48.5505C152.838 53.9294 155.885 57.281 160.76 57.281ZM160.76 54.9607C157.549 54.9607 155.51 52.488 155.51 48.5505V48.5271C155.51 44.5896 157.56 42.1287 160.76 42.1287C163.97 42.1287 165.998 44.6013 165.998 48.5271V48.5505C165.998 52.4529 164.006 54.9607 160.76 54.9607ZM180.129 57.2224C181.758 57.2224 183.187 56.3787 183.902 55.0544H183.949V56.9998H186.492V48.5037C186.492 46.031 184.582 44.4373 181.57 44.4373C178.535 44.4373 176.695 46.0662 176.519 48.1873L176.508 48.3162H178.898L178.922 48.2107C179.133 47.2263 180.035 46.5349 181.5 46.5349C183.07 46.5349 183.949 47.3552 183.949 48.7146V49.6404L180.597 49.8396C177.679 50.0154 176.015 51.3279 176.015 53.4724V53.4958C176.015 55.7107 177.668 57.2224 180.129 57.2224ZM178.57 53.4373V53.4138C178.57 52.3708 179.414 51.7029 180.937 51.6091L183.949 51.4216V52.3826C183.949 53.988 182.601 55.1951 180.82 55.1951C179.461 55.1951 178.57 54.5154 178.57 53.4373ZM189.327 56.9998H191.858V49.8162C191.858 47.8943 193.007 46.6052 194.788 46.6052C196.546 46.6052 197.413 47.6482 197.413 49.4998V56.9998H199.956V49.0193C199.956 46.1833 198.397 44.4373 195.69 44.4373C193.827 44.4373 192.561 45.281 191.917 46.5349H191.858V44.6716H189.327V56.9998ZM207.384 57.2458C209.154 57.2458 210.513 56.3552 211.252 54.9138H211.299V56.9998H213.841V40.0896H211.299V46.7693H211.252C210.513 45.3162 209.107 44.4373 207.361 44.4373C204.267 44.4373 202.228 46.8982 202.228 50.824V50.8357C202.228 54.7615 204.244 57.2458 207.384 57.2458ZM208.052 55.0662C206.049 55.0662 204.818 53.4607 204.818 50.8357V50.824C204.818 48.2224 206.06 46.6052 208.052 46.6052C209.951 46.6052 211.31 48.2693 211.31 50.824V50.8357C211.31 53.4021 209.963 55.0662 208.052 55.0662ZM224.492 56.9998H227.105L229.671 47.7654H229.73L232.32 56.9998H234.957L238.332 44.6716H235.824L233.574 54.3748H233.515L230.937 44.6716H228.5L225.933 54.3748H225.886L223.636 44.6716H221.105L224.492 56.9998ZM240.346 56.9998H242.878V49.863C242.878 47.9412 244.038 46.6052 245.784 46.6052C247.565 46.6052 248.596 47.824 248.596 49.863V56.9998H251.128V49.3826C251.128 46.406 249.393 44.4373 246.756 44.4373C244.917 44.4373 243.592 45.2693 242.936 46.699H242.878V40.0896H240.346V56.9998ZM255.392 61.113C257.806 61.113 259.095 60.1287 260.009 57.574L264.603 44.6716H261.931L258.826 54.7029H258.744L255.638 44.6716H252.896L257.384 57.0115L257.173 57.5974C256.752 58.7927 256.095 59.1091 254.9 59.1091C254.56 59.1091 254.267 59.0623 254.068 59.0154V60.9958C254.373 61.0544 254.9 61.113 255.392 61.113ZM273.156 61.113C275.57 61.113 276.859 60.1287 277.773 57.574L282.367 44.6716H279.695L276.589 54.7029H276.507L273.402 44.6716H270.66L275.148 57.0115L274.937 57.5974C274.515 58.7927 273.859 59.1091 272.664 59.1091C272.324 59.1091 272.031 59.0623 271.832 59.0154V60.9958C272.136 61.0544 272.664 61.113 273.156 61.113ZM289.045 57.2458C292.573 57.2458 294.893 54.8083 294.893 50.8357V50.8123C294.893 46.863 292.549 44.4373 289.034 44.4373C285.53 44.4373 283.198 46.8748 283.198 50.8123V50.8357C283.198 54.7966 285.506 57.2458 289.045 57.2458ZM289.057 55.1248C287.077 55.1248 285.788 53.5662 285.788 50.8357V50.8123C285.788 48.1169 287.088 46.5583 289.034 46.5583C291.014 46.5583 292.303 48.1169 292.303 50.8123V50.8357C292.303 53.5544 291.038 55.1248 289.057 55.1248ZM301.419 57.2458C303.294 57.2458 304.548 56.3904 305.193 55.1482H305.251V56.9998H307.794V44.6716H305.251V51.8669C305.251 53.7888 304.103 55.0662 302.322 55.0662C300.564 55.0662 299.697 54.0349 299.697 52.1716V44.6716H297.165V52.6638C297.165 55.4998 298.712 57.2458 301.419 57.2458ZM38.7539 88.9998H41.2852V81.8162C41.2852 79.8943 42.4336 78.6052 44.2148 78.6052C45.9727 78.6052 46.8398 79.6482 46.8398 81.4998V88.9998H49.3828V81.0193C49.3828 78.1833 47.8242 76.4373 45.1172 76.4373C43.2539 76.4373 41.9883 77.281 41.3438 78.5349H41.2852V76.6716H38.7539V88.9998ZM57.4677 89.2458C60.456 89.2458 62.3545 87.4646 62.7529 85.5076L62.7763 85.3787H60.374L60.3388 85.4724C60.0224 86.3982 59.0263 87.1716 57.5263 87.1716C55.5107 87.1716 54.2334 85.8123 54.1865 83.4802H62.917V82.6248C62.917 78.9216 60.7959 76.4373 57.3388 76.4373C53.8818 76.4373 51.6552 79.0154 51.6552 82.8708V82.8826C51.6552 86.7732 53.8467 89.2458 57.4677 89.2458ZM57.3506 78.5115C59.0029 78.5115 60.1982 79.5544 60.4092 81.6873H54.2217C54.4443 79.6248 55.7099 78.5115 57.3506 78.5115ZM70.5214 89.2458C73.5097 89.2458 75.4082 87.4646 75.8066 85.5076L75.83 85.3787H73.4277L73.3925 85.4724C73.0761 86.3982 72.08 87.1716 70.58 87.1716C68.5644 87.1716 67.2871 85.8123 67.2402 83.4802H75.9707V82.6248C75.9707 78.9216 73.8496 76.4373 70.3925 76.4373C66.9355 76.4373 64.7089 79.0154 64.7089 82.8708V82.8826C64.7089 86.7732 66.9003 89.2458 70.5214 89.2458ZM70.4042 78.5115C72.0566 78.5115 73.2519 79.5544 73.4628 81.6873H67.2753C67.498 79.6248 68.7636 78.5115 70.4042 78.5115ZM82.9189 89.2458C84.6884 89.2458 86.0478 88.3552 86.7861 86.9138H86.8329V88.9998H89.3759V72.0896H86.8329V78.7693H86.7861C86.0478 77.3162 84.6415 76.4373 82.8954 76.4373C79.8017 76.4373 77.7626 78.8982 77.7626 82.824V82.8357C77.7626 86.7615 79.7783 89.2458 82.9189 89.2458ZM83.5868 87.0662C81.5829 87.0662 80.3525 85.4607 80.3525 82.8357V82.824C80.3525 80.2224 81.5947 78.6052 83.5868 78.6052C85.4853 78.6052 86.8447 80.2693 86.8447 82.824V82.8357C86.8447 85.4021 85.497 87.0662 83.5868 87.0662ZM101.925 89.2458C102.44 89.2458 102.921 89.1873 103.214 89.1404V87.1833C103.026 87.2068 102.804 87.2302 102.534 87.2302C101.468 87.2302 100.905 86.8552 100.905 85.6013V78.6873H103.214V76.6716H100.905V73.4607H98.3153V76.6716H96.5458V78.6873H98.3153V85.7537C98.3153 88.2146 99.4872 89.2458 101.925 89.2458ZM110.678 89.2458C114.205 89.2458 116.525 86.8083 116.525 82.8357V82.8123C116.525 78.863 114.182 76.4373 110.666 76.4373C107.162 76.4373 104.83 78.8748 104.83 82.8123V82.8357C104.83 86.7966 107.139 89.2458 110.678 89.2458ZM110.689 87.1248C108.709 87.1248 107.42 85.5662 107.42 82.8357V82.8123C107.42 80.1169 108.721 78.5583 110.666 78.5583C112.646 78.5583 113.935 80.1169 113.935 82.8123V82.8357C113.935 85.5544 112.67 87.1248 110.689 87.1248ZM128.429 89.2458C128.945 89.2458 129.426 89.1873 129.719 89.1404V87.1833C129.531 87.2068 129.308 87.2302 129.039 87.2302C127.972 87.2302 127.41 86.8552 127.41 85.6013V78.6873H129.719V76.6716H127.41V73.4607H124.82V76.6716H123.051V78.6873H124.82V85.7537C124.82 88.2146 125.992 89.2458 128.429 89.2458ZM132.284 88.9998H134.815V81.863C134.815 79.9412 135.975 78.6052 137.721 78.6052C139.503 78.6052 140.534 79.824 140.534 81.863V88.9998H143.065V81.3826C143.065 78.406 141.331 76.4373 138.694 76.4373C136.854 76.4373 135.53 77.2693 134.874 78.699H134.815V72.0896H132.284V88.9998ZM147.271 74.7732C148.103 74.7732 148.748 74.1169 148.748 73.3201C148.748 72.5115 148.103 71.8552 147.271 71.8552C146.451 71.8552 145.795 72.5115 145.795 73.3201C145.795 74.1169 146.451 74.7732 147.271 74.7732ZM146.006 88.9998H148.537V76.6716H146.006V88.9998ZM151.524 88.9998H154.055V81.8162C154.055 79.8943 155.204 78.6052 156.985 78.6052C158.743 78.6052 159.61 79.6482 159.61 81.4998V88.9998H162.153V81.0193C162.153 78.1833 160.594 76.4373 157.887 76.4373C156.024 76.4373 154.759 77.281 154.114 78.5349H154.055V76.6716H151.524V88.9998ZM165.117 88.9998H167.648V84.5583L168.703 83.5154L172.886 88.9998H175.828L170.566 81.9919L175.629 76.6716H172.652L167.707 81.9333H167.648V72.0896H165.117V88.9998ZM186.338 89.2224C187.966 89.2224 189.396 88.3787 190.111 87.0544H190.158V88.9998H192.701V80.5037C192.701 78.031 190.791 76.4373 187.779 76.4373C184.744 76.4373 182.904 78.0662 182.728 80.1873L182.716 80.3162H185.107L185.131 80.2107C185.341 79.2263 186.244 78.5349 187.709 78.5349C189.279 78.5349 190.158 79.3552 190.158 80.7146V81.6404L186.806 81.8396C183.888 82.0154 182.224 83.3279 182.224 85.4724V85.4958C182.224 87.7107 183.877 89.2224 186.338 89.2224ZM184.779 85.4373V85.4138C184.779 84.3708 185.623 83.7029 187.146 83.6091L190.158 83.4216V84.3826C190.158 85.988 188.81 87.1951 187.029 87.1951C185.67 87.1951 184.779 86.5154 184.779 85.4373ZM202.087 89.2458C205.215 89.2458 207.243 86.7615 207.243 82.8357V82.824C207.243 78.8982 205.204 76.4373 202.11 76.4373C200.364 76.4373 198.958 77.3162 198.219 78.7693H198.161V72.0896H195.63V88.9998H198.161V86.9138H198.219C198.946 88.3552 200.317 89.2458 202.087 89.2458ZM201.419 87.0662C199.497 87.0662 198.149 85.4021 198.149 82.8357V82.824C198.149 80.2693 199.508 78.6052 201.419 78.6052C203.411 78.6052 204.653 80.2224 204.653 82.824V82.8357C204.653 85.4607 203.411 87.0662 201.419 87.0662ZM214.871 89.2458C218.398 89.2458 220.718 86.8083 220.718 82.8357V82.8123C220.718 78.863 218.375 76.4373 214.859 76.4373C211.355 76.4373 209.023 78.8748 209.023 82.8123V82.8357C209.023 86.7966 211.332 89.2458 214.871 89.2458ZM214.882 87.1248C212.902 87.1248 211.613 85.5662 211.613 82.8357V82.8123C211.613 80.1169 212.914 78.5583 214.859 78.5583C216.839 78.5583 218.129 80.1169 218.129 82.8123V82.8357C218.129 85.5544 216.863 87.1248 214.882 87.1248ZM227.245 89.2458C229.12 89.2458 230.374 88.3904 231.018 87.1482H231.077V88.9998H233.62V76.6716H231.077V83.8669C231.077 85.7888 229.928 87.0662 228.147 87.0662C226.389 87.0662 225.522 86.0349 225.522 84.1716V76.6716H222.991V84.6638C222.991 87.4998 224.538 89.2458 227.245 89.2458ZM240.826 89.2458C241.341 89.2458 241.822 89.1873 242.115 89.1404V87.1833C241.927 87.2068 241.705 87.2302 241.435 87.2302C240.369 87.2302 239.806 86.8552 239.806 85.6013V78.6873H242.115V76.6716H239.806V73.4607H237.216V76.6716H235.447V78.6873H237.216V85.7537C237.216 88.2146 238.388 89.2458 240.826 89.2458ZM251.207 74.7732C252.039 74.7732 252.683 74.1169 252.683 73.3201C252.683 72.5115 252.039 71.8552 251.207 71.8552C250.386 71.8552 249.73 72.5115 249.73 73.3201C249.73 74.1169 250.386 74.7732 251.207 74.7732ZM249.941 88.9998H252.472V76.6716H249.941V88.9998ZM259.784 89.2458C260.299 89.2458 260.78 89.1873 261.073 89.1404V87.1833C260.885 87.2068 260.663 87.2302 260.393 87.2302C259.327 87.2302 258.764 86.8552 258.764 85.6013V78.6873H261.073V76.6716H258.764V73.4607H256.174V76.6716H254.405V78.6873H256.174V85.7537C256.174 88.2146 257.346 89.2458 259.784 89.2458ZM266.603 83.6912H269.029V83.0232C269.029 81.8396 269.462 81.2068 270.974 80.3162C272.521 79.3904 273.435 78.113 273.435 76.3083V76.2966C273.435 73.7771 271.337 71.949 268.255 71.949C264.857 71.949 263.099 73.9646 262.947 76.4841L262.935 76.6248H265.361L265.373 76.5193C265.501 75.0896 266.509 74.1052 268.126 74.1052C269.72 74.1052 270.775 75.0662 270.775 76.4021V76.4138C270.775 77.6091 270.271 78.2888 268.853 79.1443C267.248 80.1052 266.556 81.1599 266.591 82.7537L266.603 83.6912ZM267.833 89.1287C268.712 89.1287 269.38 88.4607 269.38 87.6052C269.38 86.7498 268.712 86.0935 267.833 86.0935C266.978 86.0935 266.298 86.7498 266.298 87.6052C266.298 88.4607 266.978 89.1287 267.833 89.1287Z" fill="#DFDFDF" fill-opacity="0.7"/>
<rect x="1" y="0.999756" width="349" height="126" rx="31" stroke="url(#paint1_linear_90_133)" stroke-width="2" style="mix-blend-mode:overlay"/>
</g>
<defs>
<filter id="filter0_b_90_133" x="-70" y="-70.0002" width="491" height="268" filterUnits="userSpaceOnUse" color-interpolation-filters="sRGB">
<feFlood flood-opacity="0" result="BackgroundImageFix"/>
<feGaussianBlur in="BackgroundImage" stdDeviation="35"/>
<feComposite in2="SourceAlpha" operator="in" result="effect1_backgroundBlur_90_133"/>
<feBlend mode="normal" in="SourceGraphic" in2="effect1_backgroundBlur_90_133" result="shape"/>
</filter>
<linearGradient id="paint0_linear_90_133" x1="175.5" y1="1.99976" x2="174.458" y2="126.064" gradientUnits="userSpaceOnUse">
<stop stop-color="white"/>
<stop offset="1" stop-color="white" stop-opacity="0"/>
</linearGradient>
<linearGradient id="paint1_linear_90_133" x1="71.4" y1="5.75733" x2="109.38" y2="175.238" gradientUnits="userSpaceOnUse">
<stop stop-color="white"/>
<stop offset="0.537367" stop-color="white" stop-opacity="0"/>
<stop offset="1" stop-color="white" stop-opacity="0.77"/>
</linearGradient>
</defs>
</svg>
