<svg width="309" height="160" viewBox="0 0 309 160" fill="none" xmlns="http://www.w3.org/2000/svg">
<g filter="url(#filter0_b_90_148)">
<rect x="2" y="1.99976" width="305" height="156" rx="30" fill="url(#paint0_linear_90_148)" fill-opacity="0.5"/>
<path d="M39.0586 56.9998H41.6836V40.0896H39.0586V56.9998ZM49.4873 57.2458C52.3935 57.2458 54.5029 55.699 54.5029 53.449V53.4373C54.5029 51.6677 53.542 50.6716 51.0224 50.0857L49.0185 49.6287C47.6943 49.3123 47.1904 48.7966 47.1904 48.0349V48.0232C47.1904 47.0388 48.0459 46.3943 49.4053 46.3943C50.8349 46.3943 51.6787 47.1443 51.831 48.2224L51.8428 48.3044H54.2217L54.2099 48.1638C54.081 46.0662 52.3232 44.4373 49.4053 44.4373C46.5693 44.4373 44.6474 45.949 44.6474 48.1521V48.1638C44.6474 49.9568 45.8076 51.0818 48.1513 51.6208L50.167 52.0779C51.4912 52.3943 51.9365 52.8513 51.9365 53.6482V53.6599C51.9365 54.656 51.0224 55.2888 49.499 55.2888C47.9404 55.2888 47.0967 54.6208 46.8623 53.4841L46.8388 53.3669H44.331L44.3428 53.4724C44.6006 55.7224 46.4053 57.2458 49.4873 57.2458ZM63.5478 61.113C65.9618 61.113 67.2509 60.1287 68.165 57.574L72.7587 44.6716H70.0868L66.9814 54.7029H66.8993L63.7939 44.6716H61.0517L65.54 57.0115L65.329 57.5974C64.9072 58.7927 64.2509 59.1091 63.0556 59.1091C62.7157 59.1091 62.4228 59.0623 62.2236 59.0154V60.9958C62.5282 61.0544 63.0556 61.113 63.5478 61.113ZM79.4374 57.2458C82.9647 57.2458 85.2851 54.8083 85.2851 50.8357V50.8123C85.2851 46.863 82.9413 44.4373 79.4257 44.4373C75.9218 44.4373 73.5897 46.8748 73.5897 50.8123V50.8357C73.5897 54.7966 75.8983 57.2458 79.4374 57.2458ZM79.4491 55.1248C77.4687 55.1248 76.1796 53.5662 76.1796 50.8357V50.8123C76.1796 48.1169 77.4804 46.5583 79.4257 46.5583C81.4062 46.5583 82.6952 48.1169 82.6952 50.8123V50.8357C82.6952 53.5544 81.4296 55.1248 79.4491 55.1248ZM91.8114 57.2458C93.6864 57.2458 94.9403 56.3904 95.5848 55.1482H95.6434V56.9998H98.1864V44.6716H95.6434V51.8669C95.6434 53.7888 94.495 55.0662 92.7137 55.0662C90.9559 55.0662 90.0887 54.0349 90.0887 52.1716V44.6716H87.5575V52.6638C87.5575 55.4998 89.1044 57.2458 91.8114 57.2458ZM101.068 56.9998H103.599V49.6521C103.599 47.8123 104.607 46.7458 106.236 46.7458C106.728 46.7458 107.174 46.8044 107.373 46.8865V44.531C107.174 44.4958 106.857 44.4373 106.494 44.4373C105.088 44.4373 104.056 45.3396 103.658 46.781H103.599V44.6716H101.068V56.9998ZM119.863 57.2458C122.828 57.2458 124.89 55.3474 125.16 52.8748L125.172 52.7927H122.734L122.722 52.8865C122.418 54.2224 121.422 55.1248 119.863 55.1248C117.906 55.1248 116.605 53.5427 116.605 50.8474V50.8357C116.605 48.199 117.883 46.5583 119.851 46.5583C121.504 46.5583 122.441 47.5779 122.711 48.7849L122.734 48.8787H125.148L125.137 48.7966C124.926 46.4763 123.004 44.4373 119.828 44.4373C116.312 44.4373 114.015 46.9099 114.015 50.8123V50.824C114.015 54.7732 116.265 57.2458 119.863 57.2458ZM131.534 57.2458C133.409 57.2458 134.663 56.3904 135.307 55.1482H135.366V56.9998H137.909V44.6716H135.366V51.8669C135.366 53.7888 134.218 55.0662 132.436 55.0662C130.678 55.0662 129.811 54.0349 129.811 52.1716V44.6716H127.28V52.6638C127.28 55.4998 128.827 57.2458 131.534 57.2458ZM140.791 56.9998H143.322V49.6521C143.322 47.8123 144.33 46.7458 145.959 46.7458C146.451 46.7458 146.896 46.8044 147.095 46.8865V44.531C146.896 44.4958 146.58 44.4373 146.217 44.4373C144.81 44.4373 143.779 45.3396 143.381 46.781H143.322V44.6716H140.791V56.9998ZM149.04 56.9998H151.571V49.6521C151.571 47.8123 152.579 46.7458 154.208 46.7458C154.7 46.7458 155.145 46.8044 155.344 46.8865V44.531C155.145 44.4958 154.829 44.4373 154.466 44.4373C153.059 44.4373 152.028 45.3396 151.63 46.781H151.571V44.6716H149.04V56.9998ZM162.011 57.2458C165 57.2458 166.898 55.4646 167.297 53.5076L167.32 53.3787H164.918L164.883 53.4724C164.566 54.3982 163.57 55.1716 162.07 55.1716C160.054 55.1716 158.777 53.8123 158.73 51.4802H167.461V50.6248C167.461 46.9216 165.34 44.4373 161.883 44.4373C158.425 44.4373 156.199 47.0154 156.199 50.8708V50.8826C156.199 54.7732 158.39 57.2458 162.011 57.2458ZM161.894 46.5115C163.547 46.5115 164.742 47.5544 164.953 49.6873H158.765C158.988 47.6248 160.254 46.5115 161.894 46.5115ZM169.803 56.9998H172.335V49.8162C172.335 47.8943 173.483 46.6052 175.264 46.6052C177.022 46.6052 177.889 47.6482 177.889 49.4998V56.9998H180.432V49.0193C180.432 46.1833 178.874 44.4373 176.167 44.4373C174.303 44.4373 173.038 45.281 172.393 46.5349H172.335V44.6716H169.803V56.9998ZM187.58 57.2458C188.095 57.2458 188.576 57.1873 188.869 57.1404V55.1833C188.681 55.2068 188.459 55.2302 188.189 55.2302C187.123 55.2302 186.56 54.8552 186.56 53.6013V46.6873H188.869V44.6716H186.56V41.4607H183.97V44.6716H182.201V46.6873H183.97V53.7537C183.97 56.2146 185.142 57.2458 187.58 57.2458ZM196.683 56.9998H199.214V40.0896H196.683V56.9998ZM207.487 57.2458C211.014 57.2458 213.335 54.8083 213.335 50.8357V50.8123C213.335 46.863 210.991 44.4373 207.475 44.4373C203.971 44.4373 201.639 46.8748 201.639 50.8123V50.8357C201.639 54.7966 203.948 57.2458 207.487 57.2458ZM207.499 55.1248C205.518 55.1248 204.229 53.5662 204.229 50.8357V50.8123C204.229 48.1169 205.53 46.5583 207.475 46.5583C209.456 46.5583 210.745 48.1169 210.745 50.8123V50.8357C210.745 53.5544 209.479 55.1248 207.499 55.1248ZM221.068 61.3474C224.548 61.3474 226.728 59.4724 226.728 56.6599V44.6716H224.185V46.7693H224.127C223.4 45.3748 222.041 44.4373 220.306 44.4373C217.177 44.4373 215.115 46.863 215.115 50.7302V50.7419C215.115 54.5857 217.154 57.0115 220.248 57.0115C222.017 57.0115 223.423 56.156 224.127 54.8201H224.185V56.5076C224.185 58.2302 223.072 59.3083 221.056 59.3083C219.474 59.3083 218.408 58.7693 218.068 57.9841L218.021 57.8904H215.513L215.525 57.9958C215.9 59.8826 217.904 61.3474 221.068 61.3474ZM220.962 54.949C218.959 54.949 217.705 53.3552 217.705 50.7771V50.7654C217.705 48.2224 218.959 46.6052 220.962 46.6052C222.884 46.6052 224.185 48.2341 224.185 50.7654V50.7771C224.185 53.3201 222.896 54.949 220.962 54.949ZM234.907 57.2458C238.434 57.2458 240.754 54.8083 240.754 50.8357V50.8123C240.754 46.863 238.411 44.4373 234.895 44.4373C231.391 44.4373 229.059 46.8748 229.059 50.8123V50.8357C229.059 54.7966 231.368 57.2458 234.907 57.2458ZM234.919 55.1248C232.938 55.1248 231.649 53.5662 231.649 50.8357V50.8123C231.649 48.1169 232.95 46.5583 234.895 46.5583C236.876 46.5583 238.165 48.1169 238.165 50.8123V50.8357C238.165 53.5544 236.899 55.1248 234.919 55.1248ZM44.0508 89.2458C47.0156 89.2458 49.0781 87.3474 49.3477 84.8748L49.3594 84.7927H46.9219L46.9102 84.8865C46.6055 86.2224 45.6094 87.1248 44.0508 87.1248C42.0938 87.1248 40.793 85.5427 40.793 82.8474V82.8357C40.793 80.199 42.0703 78.5583 44.0391 78.5583C45.6914 78.5583 46.6289 79.5779 46.8984 80.7849L46.9219 80.8787H49.3359L49.3242 80.7966C49.1133 78.4763 47.1914 76.4373 44.0156 76.4373C40.5 76.4373 38.2031 78.9099 38.2031 82.8123V82.824C38.2031 86.7732 40.4531 89.2458 44.0508 89.2458ZM56.8232 89.2458C60.3506 89.2458 62.6709 86.8083 62.6709 82.8357V82.8123C62.6709 78.863 60.3271 76.4373 56.8115 76.4373C53.3076 76.4373 50.9756 78.8748 50.9756 82.8123V82.8357C50.9756 86.7966 53.2842 89.2458 56.8232 89.2458ZM56.8349 87.1248C54.8545 87.1248 53.5654 85.5662 53.5654 82.8357V82.8123C53.5654 80.1169 54.8662 78.5583 56.8115 78.5583C58.792 78.5583 60.081 80.1169 60.081 82.8123V82.8357C60.081 85.5544 58.8154 87.1248 56.8349 87.1248ZM65.0019 88.9998H67.5332V81.3826C67.5332 79.7888 68.5996 78.6052 70.0996 78.6052C71.5292 78.6052 72.4316 79.5193 72.4316 80.949V88.9998H74.916V81.2888C74.916 79.7302 75.9589 78.6052 77.4589 78.6052C78.9589 78.6052 79.8144 79.531 79.8144 81.1365V88.9998H82.3574V80.5271C82.3574 78.0544 80.7636 76.4373 78.3261 76.4373C76.5683 76.4373 75.1152 77.363 74.4824 78.863H74.4238C73.9316 77.3162 72.6894 76.4373 70.9902 76.4373C69.373 76.4373 68.1191 77.2927 67.5917 78.5818H67.5332V76.6716H65.0019V88.9998ZM85.1806 88.9998H87.7118V81.3826C87.7118 79.7888 88.7783 78.6052 90.2783 78.6052C91.7079 78.6052 92.6103 79.5193 92.6103 80.949V88.9998H95.0947V81.2888C95.0947 79.7302 96.1376 78.6052 97.6376 78.6052C99.1376 78.6052 99.9931 79.531 99.9931 81.1365V88.9998H102.536V80.5271C102.536 78.0544 100.942 76.4373 98.5048 76.4373C96.747 76.4373 95.2939 77.363 94.6611 78.863H94.6025C94.1103 77.3162 92.8681 76.4373 91.1689 76.4373C89.5517 76.4373 88.2978 77.2927 87.7704 78.5818H87.7118V76.6716H85.1806V88.9998ZM109.555 89.2458C111.43 89.2458 112.684 88.3904 113.328 87.1482H113.387V88.9998H115.93V76.6716H113.387V83.8669C113.387 85.7888 112.238 87.0662 110.457 87.0662C108.699 87.0662 107.832 86.0349 107.832 84.1716V76.6716H105.301V84.6638C105.301 87.4998 106.848 89.2458 109.555 89.2458ZM118.811 88.9998H121.343V81.8162C121.343 79.8943 122.491 78.6052 124.272 78.6052C126.03 78.6052 126.897 79.6482 126.897 81.4998V88.9998H129.44V81.0193C129.44 78.1833 127.882 76.4373 125.175 76.4373C123.311 76.4373 122.046 77.281 121.401 78.5349H121.343V76.6716H118.811V88.9998ZM133.635 74.7732C134.467 74.7732 135.111 74.1169 135.111 73.3201C135.111 72.5115 134.467 71.8552 133.635 71.8552C132.814 71.8552 132.158 72.5115 132.158 73.3201C132.158 74.1169 132.814 74.7732 133.635 74.7732ZM132.369 88.9998H134.9V76.6716H132.369V88.9998ZM143.184 89.2458C146.149 89.2458 148.212 87.3474 148.481 84.8748L148.493 84.7927H146.056L146.044 84.8865C145.739 86.2224 144.743 87.1248 143.184 87.1248C141.227 87.1248 139.927 85.5427 139.927 82.8474V82.8357C139.927 80.199 141.204 78.5583 143.173 78.5583C144.825 78.5583 145.763 79.5779 146.032 80.7849L146.056 80.8787H148.47L148.458 80.7966C148.247 78.4763 146.325 76.4373 143.149 76.4373C139.634 76.4373 137.337 78.9099 137.337 82.8123V82.824C137.337 86.7732 139.587 89.2458 143.184 89.2458ZM154.281 89.2224C155.91 89.2224 157.34 88.3787 158.054 87.0544H158.101V88.9998H160.644V80.5037C160.644 78.031 158.734 76.4373 155.722 76.4373C152.687 76.4373 150.847 78.0662 150.672 80.1873L150.66 80.3162H153.051L153.074 80.2107C153.285 79.2263 154.187 78.5349 155.652 78.5349C157.222 78.5349 158.101 79.3552 158.101 80.7146V81.6404L154.75 81.8396C151.832 82.0154 150.168 83.3279 150.168 85.4724V85.4958C150.168 87.7107 151.82 89.2224 154.281 89.2224ZM152.722 85.4373V85.4138C152.722 84.3708 153.566 83.7029 155.09 83.6091L158.101 83.4216V84.3826C158.101 85.988 156.754 87.1951 154.972 87.1951C153.613 87.1951 152.722 86.5154 152.722 85.4373ZM167.803 89.2458C168.319 89.2458 168.8 89.1873 169.093 89.1404V87.1833C168.905 87.2068 168.682 87.2302 168.413 87.2302C167.346 87.2302 166.784 86.8552 166.784 85.6013V78.6873H169.093V76.6716H166.784V73.4607H164.194V76.6716H162.425V78.6873H164.194V85.7537C164.194 88.2146 165.366 89.2458 167.803 89.2458ZM172.935 74.7732C173.767 74.7732 174.412 74.1169 174.412 73.3201C174.412 72.5115 173.767 71.8552 172.935 71.8552C172.115 71.8552 171.459 72.5115 171.459 73.3201C171.459 74.1169 172.115 74.7732 172.935 74.7732ZM171.67 88.9998H174.201V76.6716H171.67V88.9998ZM177.188 88.9998H179.719V81.8162C179.719 79.8943 180.868 78.6052 182.649 78.6052C184.407 78.6052 185.274 79.6482 185.274 81.4998V88.9998H187.817V81.0193C187.817 78.1833 186.259 76.4373 183.551 76.4373C181.688 76.4373 180.423 77.281 179.778 78.5349H179.719V76.6716H177.188V88.9998ZM196.043 93.3474C199.523 93.3474 201.703 91.4724 201.703 88.6599V76.6716H199.16V78.7693H199.101C198.375 77.3748 197.015 76.4373 195.281 76.4373C192.152 76.4373 190.09 78.863 190.09 82.7302V82.7419C190.09 86.5857 192.129 89.0115 195.222 89.0115C196.992 89.0115 198.398 88.156 199.101 86.8201H199.16V88.5076C199.16 90.2302 198.047 91.3083 196.031 91.3083C194.449 91.3083 193.383 90.7693 193.043 89.9841L192.996 89.8904H190.488L190.5 89.9958C190.875 91.8826 192.879 93.3474 196.043 93.3474ZM195.937 86.949C193.933 86.949 192.679 85.3552 192.679 82.7771V82.7654C192.679 80.2224 193.933 78.6052 195.937 78.6052C197.859 78.6052 199.16 80.2341 199.16 82.7654V82.7771C199.16 85.3201 197.871 86.949 195.937 86.949ZM212.259 88.9998H214.873L217.439 79.7654H217.498L220.088 88.9998H222.724L226.099 76.6716H223.591L221.341 86.3748H221.283L218.705 76.6716H216.267L213.701 86.3748H213.654L211.404 76.6716H208.873L212.259 88.9998ZM229.391 74.7732C230.223 74.7732 230.868 74.1169 230.868 73.3201C230.868 72.5115 230.223 71.8552 229.391 71.8552C228.571 71.8552 227.915 72.5115 227.915 73.3201C227.915 74.1169 228.571 74.7732 229.391 74.7732ZM228.126 88.9998H230.657V76.6716H228.126V88.9998ZM237.968 89.2458C238.484 89.2458 238.964 89.1873 239.257 89.1404V87.1833C239.07 87.2068 238.847 87.2302 238.578 87.2302C237.511 87.2302 236.949 86.8552 236.949 85.6013V78.6873H239.257V76.6716H236.949V73.4607H234.359V76.6716H232.589V78.6873H234.359V85.7537C234.359 88.2146 235.531 89.2458 237.968 89.2458ZM241.823 88.9998H244.354V81.863C244.354 79.9412 245.514 78.6052 247.26 78.6052C249.042 78.6052 250.073 79.824 250.073 81.863V88.9998H252.604V81.3826C252.604 78.406 250.87 76.4373 248.233 76.4373C246.393 76.4373 245.069 77.2693 244.413 78.699H244.354V72.0896H241.823V88.9998ZM40.207 125.113C42.6211 125.113 43.9102 124.129 44.8242 121.574L49.418 108.672H46.7461L43.6406 118.703H43.5586L40.4531 108.672H37.7109L42.1992 121.011L41.9883 121.597C41.5664 122.793 40.9102 123.109 39.7148 123.109C39.375 123.109 39.082 123.062 38.8828 123.015V124.996C39.1875 125.054 39.7148 125.113 40.207 125.113ZM56.0967 121.246C59.624 121.246 61.9443 118.808 61.9443 114.836V114.812C61.9443 110.863 59.6006 108.437 56.0849 108.437C52.581 108.437 50.249 110.875 50.249 114.812V114.836C50.249 118.797 52.5576 121.246 56.0967 121.246ZM56.1084 119.125C54.1279 119.125 52.8388 117.566 52.8388 114.836V114.812C52.8388 112.117 54.1396 110.558 56.0849 110.558C58.0654 110.558 59.3545 112.117 59.3545 114.812V114.836C59.3545 117.554 58.0888 119.125 56.1084 119.125ZM68.4707 121.246C70.3457 121.246 71.5996 120.39 72.2441 119.148H72.3027V121H74.8457V108.672H72.3027V115.867C72.3027 117.789 71.1542 119.066 69.373 119.066C67.6152 119.066 66.748 118.035 66.748 116.172V108.672H64.2167V116.664C64.2167 119.5 65.7636 121.246 68.4707 121.246ZM77.7275 121H80.2587V113.652C80.2587 111.812 81.2665 110.746 82.8954 110.746C83.3876 110.746 83.8329 110.804 84.0322 110.886V108.531C83.8329 108.496 83.5165 108.437 83.1533 108.437C81.747 108.437 80.7158 109.34 80.3173 110.781H80.2587V108.672H77.7275V121ZM96.5223 121.246C99.4872 121.246 101.55 119.347 101.819 116.875L101.831 116.793H99.3934L99.3817 116.886C99.077 118.222 98.0809 119.125 96.5223 119.125C94.5653 119.125 93.2645 117.543 93.2645 114.847V114.836C93.2645 112.199 94.5419 110.558 96.5106 110.558C98.163 110.558 99.1005 111.578 99.37 112.785L99.3934 112.879H101.807L101.796 112.797C101.585 110.476 99.663 108.437 96.4872 108.437C92.9716 108.437 90.6747 110.91 90.6747 114.812V114.824C90.6747 118.773 92.9247 121.246 96.5223 121.246ZM104.092 121H106.623V104.09H104.092V121ZM110.97 106.773C111.802 106.773 112.446 106.117 112.446 105.32C112.446 104.511 111.802 103.855 110.97 103.855C110.149 103.855 109.493 104.511 109.493 105.32C109.493 106.117 110.149 106.773 110.97 106.773ZM109.704 121H112.235V108.672H109.704V121ZM120.484 121.246C123.472 121.246 125.371 119.465 125.769 117.508L125.793 117.379H123.39L123.355 117.472C123.039 118.398 122.043 119.172 120.543 119.172C118.527 119.172 117.25 117.812 117.203 115.48H125.933V114.625C125.933 110.922 123.812 108.437 120.355 108.437C116.898 108.437 114.672 111.015 114.672 114.871V114.883C114.672 118.773 116.863 121.246 120.484 121.246ZM120.367 110.511C122.019 110.511 123.215 111.554 123.426 113.687H117.238C117.461 111.625 118.726 110.511 120.367 110.511ZM128.276 121H130.807V113.816C130.807 111.894 131.956 110.605 133.737 110.605C135.495 110.605 136.362 111.648 136.362 113.5V121H138.905V113.019C138.905 110.183 137.346 108.437 134.639 108.437C132.776 108.437 131.511 109.281 130.866 110.535H130.807V108.672H128.276V121ZM146.052 121.246C146.568 121.246 147.049 121.187 147.342 121.14V119.183C147.154 119.207 146.931 119.23 146.662 119.23C145.595 119.23 145.033 118.855 145.033 117.601V110.687H147.342V108.672H145.033V105.461H142.443V108.672H140.674V110.687H142.443V117.754C142.443 120.215 143.615 121.246 146.052 121.246ZM154.43 121.246C157.337 121.246 159.446 119.699 159.446 117.449V117.437C159.446 115.668 158.485 114.672 155.966 114.086L153.962 113.629C152.637 113.312 152.134 112.797 152.134 112.035V112.023C152.134 111.039 152.989 110.394 154.348 110.394C155.778 110.394 156.622 111.144 156.774 112.222L156.786 112.304H159.165L159.153 112.164C159.024 110.066 157.266 108.437 154.348 108.437C151.512 108.437 149.591 109.949 149.591 112.152V112.164C149.591 113.957 150.751 115.082 153.094 115.621L155.11 116.078C156.434 116.394 156.88 116.851 156.88 117.648V117.66C156.88 118.656 155.966 119.289 154.442 119.289C152.884 119.289 152.04 118.621 151.805 117.484L151.782 117.367H149.274L149.286 117.472C149.544 119.722 151.348 121.246 154.43 121.246ZM164.847 115.691H167.273V115.023C167.273 113.84 167.707 113.207 169.218 112.316C170.765 111.39 171.679 110.113 171.679 108.308V108.297C171.679 105.777 169.582 103.949 166.5 103.949C163.101 103.949 161.343 105.965 161.191 108.484L161.179 108.625H163.605L163.617 108.519C163.746 107.09 164.754 106.105 166.371 106.105C167.965 106.105 169.019 107.066 169.019 108.402V108.414C169.019 109.609 168.515 110.289 167.097 111.144C165.492 112.105 164.8 113.16 164.836 114.754L164.847 115.691ZM166.078 121.129C166.957 121.129 167.625 120.461 167.625 119.605C167.625 118.75 166.957 118.094 166.078 118.094C165.222 118.094 164.543 118.75 164.543 119.605C164.543 120.461 165.222 121.129 166.078 121.129Z" fill="white" fill-opacity="0.5"/>
<rect x="1" y="0.999756" width="307" height="158" rx="31" stroke="url(#paint1_linear_90_148)" stroke-width="2" style="mix-blend-mode:overlay"/>
</g>
<defs>
<filter id="filter0_b_90_148" x="-70" y="-70.0002" width="449" height="300" filterUnits="userSpaceOnUse" color-interpolation-filters="sRGB">
<feFlood flood-opacity="0" result="BackgroundImageFix"/>
<feGaussianBlur in="BackgroundImage" stdDeviation="35"/>
<feComposite in2="SourceAlpha" operator="in" result="effect1_backgroundBlur_90_148"/>
<feBlend mode="normal" in="SourceGraphic" in2="effect1_backgroundBlur_90_148" result="shape"/>
</filter>
<linearGradient id="paint0_linear_90_148" x1="154.5" y1="1.99976" x2="152.623" y2="158.069" gradientUnits="userSpaceOnUse">
<stop stop-color="white"/>
<stop offset="1" stop-color="white" stop-opacity="0"/>
</linearGradient>
<linearGradient id="paint1_linear_90_148" x1="63" y1="6.72703" x2="128.124" y2="209.764" gradientUnits="userSpaceOnUse">
<stop stop-color="white"/>
<stop offset="0.537367" stop-color="white" stop-opacity="0"/>
<stop offset="1" stop-color="white" stop-opacity="0.77"/>
</linearGradient>
</defs>
</svg>
