<svg width="231" height="128" viewBox="0 0 231 128" fill="none" xmlns="http://www.w3.org/2000/svg">
<g opacity="0.5" filter="url(#filter0_b_90_135)">
<rect x="-52" y="1.99976" width="281" height="124" rx="30" fill="url(#paint0_linear_90_135)" fill-opacity="0.5"/>
<path d="M-14.9258 56.9998H-12.4062L-8.76172 44.2498H-8.70312L-5.07031 56.9998H-2.55078L2.01953 40.0896H-0.710938L-3.86328 53.3435H-3.92188L-7.49609 40.0896H-9.98047L-13.5547 53.3435H-13.6016L-16.7539 40.0896H-19.4844L-14.9258 56.9998ZM4.26853 56.9998H6.79978V49.863C6.79978 47.9412 7.95994 46.6052 9.70603 46.6052C11.4873 46.6052 12.5185 47.824 12.5185 49.863V56.9998H15.0498V49.3826C15.0498 46.406 13.3154 44.4373 10.6787 44.4373C8.83884 44.4373 7.51463 45.2693 6.85838 46.699H6.79978V40.0896H4.26853V56.9998ZM21.5058 57.2224C23.1347 57.2224 24.5644 56.3787 25.2793 55.0544H25.3261V56.9998H27.8691V48.5037C27.8691 46.031 25.9589 44.4373 22.9472 44.4373C19.9121 44.4373 18.0722 46.0662 17.8964 48.1873L17.8847 48.3162H20.2753L20.2988 48.2107C20.5097 47.2263 21.4121 46.5349 22.8769 46.5349C24.4472 46.5349 25.3261 47.3552 25.3261 48.7146V49.6404L21.9746 49.8396C19.0566 50.0154 17.3925 51.3279 17.3925 53.4724V53.4958C17.3925 55.7107 19.0449 57.2224 21.5058 57.2224ZM19.9472 53.4373V53.4138C19.9472 52.3708 20.791 51.7029 22.3144 51.6091L25.3261 51.4216V52.3826C25.3261 53.988 23.9785 55.1951 22.1972 55.1951C20.8378 55.1951 19.9472 54.5154 19.9472 53.4373ZM35.0283 57.2458C35.5439 57.2458 36.0243 57.1873 36.3173 57.1404V55.1833C36.1298 55.2068 35.9072 55.2302 35.6376 55.2302C34.5712 55.2302 34.0087 54.8552 34.0087 53.6013V46.6873H36.3173V44.6716H34.0087V41.4607H31.4189V44.6716H29.6493V46.6873H31.4189V53.7537C31.4189 56.2146 32.5908 57.2458 35.0283 57.2458ZM45.4091 42.7732C46.2411 42.7732 46.8856 42.1169 46.8856 41.3201C46.8856 40.5115 46.2411 39.8552 45.4091 39.8552C44.5887 39.8552 43.9325 40.5115 43.9325 41.3201C43.9325 42.1169 44.5887 42.7732 45.4091 42.7732ZM44.1434 56.9998H46.6747V44.6716H44.1434V56.9998ZM54.2792 57.2458C57.1854 57.2458 59.2948 55.699 59.2948 53.449V53.4373C59.2948 51.6677 58.3338 50.6716 55.8143 50.0857L53.8104 49.6287C52.4862 49.3123 51.9823 48.7966 51.9823 48.0349V48.0232C51.9823 47.0388 52.8378 46.3943 54.1971 46.3943C55.6268 46.3943 56.4706 47.1443 56.6229 48.2224L56.6346 48.3044H59.0135L59.0018 48.1638C58.8729 46.0662 57.1151 44.4373 54.1971 44.4373C51.3612 44.4373 49.4393 45.949 49.4393 48.1521V48.1638C49.4393 49.9568 50.5995 51.0818 52.9432 51.6208L54.9588 52.0779C56.2831 52.3943 56.7284 52.8513 56.7284 53.6482V53.6599C56.7284 54.656 55.8143 55.2888 54.2909 55.2888C52.7323 55.2888 51.8885 54.6208 51.6542 53.4841L51.6307 53.3669H49.1229L49.1346 53.4724C49.3924 55.7224 51.1971 57.2458 54.2792 57.2458ZM68.3397 61.113C70.7537 61.113 72.0428 60.1287 72.9568 57.574L77.5506 44.6716H74.8787L71.7732 54.7029H71.6912L68.5857 44.6716H65.8436L70.3318 57.0115L70.1209 57.5974C69.699 58.7927 69.0428 59.1091 67.8475 59.1091C67.5076 59.1091 67.2147 59.0623 67.0154 59.0154V60.9958C67.3201 61.0544 67.8475 61.113 68.3397 61.113ZM84.2293 57.2458C87.7566 57.2458 90.0769 54.8083 90.0769 50.8357V50.8123C90.0769 46.863 87.7332 44.4373 84.2176 44.4373C80.7137 44.4373 78.3816 46.8748 78.3816 50.8123V50.8357C78.3816 54.7966 80.6902 57.2458 84.2293 57.2458ZM84.241 55.1248C82.2605 55.1248 80.9715 53.5662 80.9715 50.8357V50.8123C80.9715 48.1169 82.2722 46.5583 84.2176 46.5583C86.198 46.5583 87.4871 48.1169 87.4871 50.8123V50.8357C87.4871 53.5544 86.2215 55.1248 84.241 55.1248ZM96.6033 57.2458C98.4783 57.2458 99.7322 56.3904 100.377 55.1482H100.435V56.9998H102.978V44.6716H100.435V51.8669C100.435 53.7888 99.2869 55.0662 97.5056 55.0662C95.7478 55.0662 94.8806 54.0349 94.8806 52.1716V44.6716H92.3494V52.6638C92.3494 55.4998 93.8962 57.2458 96.6033 57.2458ZM105.86 56.9998H108.391V49.6521C108.391 47.8123 109.399 46.7458 111.028 46.7458C111.52 46.7458 111.966 46.8044 112.165 46.8865V44.531C111.966 44.4958 111.649 44.4373 111.286 44.4373C109.88 44.4373 108.848 45.3396 108.45 46.781H108.391V44.6716H105.86V56.9998ZM123.553 57.2458C125.428 57.2458 126.682 56.3904 127.327 55.1482H127.385V56.9998H129.928V44.6716H127.385V51.8669C127.385 53.7888 126.237 55.0662 124.456 55.0662C122.698 55.0662 121.831 54.0349 121.831 52.1716V44.6716H119.299V52.6638C119.299 55.4998 120.846 57.2458 123.553 57.2458ZM132.81 56.9998H135.341V49.8162C135.341 47.8943 136.49 46.6052 138.271 46.6052C140.029 46.6052 140.896 47.6482 140.896 49.4998V56.9998H143.439V49.0193C143.439 46.1833 141.881 44.4373 139.174 44.4373C137.31 44.4373 136.045 45.281 135.4 46.5349H135.341V44.6716H132.81V56.9998ZM147.633 42.7732C148.465 42.7732 149.11 42.1169 149.11 41.3201C149.11 40.5115 148.465 39.8552 147.633 39.8552C146.813 39.8552 146.157 40.5115 146.157 41.3201C146.157 42.1169 146.813 42.7732 147.633 42.7732ZM146.368 56.9998H148.899V44.6716H146.368V56.9998ZM160.406 61.1013H162.949V44.6716H160.406V46.7927H160.347C159.621 45.3865 158.261 44.449 156.527 44.449C153.398 44.449 151.336 46.9099 151.336 50.8123V50.824C151.336 54.7498 153.375 57.2224 156.468 57.2224C158.238 57.2224 159.644 56.3552 160.347 54.9724H160.406V61.1013ZM157.183 55.0427C155.179 55.0427 153.925 53.4373 153.925 50.824V50.8123C153.925 48.2576 155.179 46.6287 157.183 46.6287C159.105 46.6287 160.406 48.2693 160.406 50.824V50.8357C160.406 53.3904 159.117 55.0427 157.183 55.0427ZM170.003 57.2458C171.878 57.2458 173.131 56.3904 173.776 55.1482H173.835V56.9998H176.378V44.6716H173.835V51.8669C173.835 53.7888 172.686 55.0662 170.905 55.0662C169.147 55.0662 168.28 54.0349 168.28 52.1716V44.6716H165.749V52.6638C165.749 55.4998 167.296 57.2458 170.003 57.2458ZM184.521 57.2458C187.509 57.2458 189.408 55.4646 189.806 53.5076L189.83 53.3787H187.427L187.392 53.4724C187.076 54.3982 186.08 55.1716 184.58 55.1716C182.564 55.1716 181.287 53.8123 181.24 51.4802H189.97V50.6248C189.97 46.9216 187.849 44.4373 184.392 44.4373C180.935 44.4373 178.709 47.0154 178.709 50.8708V50.8826C178.709 54.7732 180.9 57.2458 184.521 57.2458ZM184.404 46.5115C186.056 46.5115 187.252 47.5544 187.462 49.6873H181.275C181.498 47.6248 182.763 46.5115 184.404 46.5115ZM-14.1289 89.2458C-11.2227 89.2458 -9.11328 87.699 -9.11328 85.449V85.4373C-9.11328 83.6677 -10.0742 82.6716 -12.5938 82.0857L-14.5977 81.6287C-15.9219 81.3123 -16.4258 80.7966 -16.4258 80.0349V80.0232C-16.4258 79.0388 -15.5703 78.3943 -14.2109 78.3943C-12.7812 78.3943 -11.9375 79.1443 -11.7852 80.2224L-11.7734 80.3044H-9.39453L-9.40625 80.1638C-9.53516 78.0662 -11.293 76.4373 -14.2109 76.4373C-17.0469 76.4373 -18.9688 77.949 -18.9688 80.1521V80.1638C-18.9688 81.9568 -17.8086 83.0818 -15.4648 83.6208L-13.4492 84.0779C-12.125 84.3943 -11.6797 84.8513 -11.6797 85.6482V85.6599C-11.6797 86.656 -12.5938 87.2888 -14.1172 87.2888C-15.6758 87.2888 -16.5195 86.6208 -16.7539 85.4841L-16.7773 85.3669H-19.2852L-19.2734 85.4724C-19.0156 87.7224 -17.2109 89.2458 -14.1289 89.2458ZM-1.50881 89.2458C1.47947 89.2458 3.37791 87.4646 3.77634 85.5076L3.79978 85.3787H1.39744L1.36228 85.4724C1.04587 86.3982 0.0497808 87.1716 -1.45022 87.1716C-3.46584 87.1716 -4.74319 85.8123 -4.79006 83.4802H3.94041V82.6248C3.94041 78.9216 1.81931 76.4373 -1.63772 76.4373C-5.09475 76.4373 -7.32131 79.0154 -7.32131 82.8708V82.8826C-7.32131 86.7732 -5.12991 89.2458 -1.50881 89.2458ZM-1.626 78.5115C0.0263433 78.5115 1.22166 79.5544 1.43259 81.6873H-4.75491C-4.53225 79.6248 -3.26663 78.5115 -1.626 78.5115ZM6.37691 88.9998H8.90816V72.0896H6.37691V88.9998ZM11.9775 88.9998H14.5087V72.0896H11.9775V88.9998ZM18.8554 74.7732C19.6874 74.7732 20.3319 74.1169 20.3319 73.3201C20.3319 72.5115 19.6874 71.8552 18.8554 71.8552C18.0351 71.8552 17.3788 72.5115 17.3788 73.3201C17.3788 74.1169 18.0351 74.7732 18.8554 74.7732ZM17.5897 88.9998H20.121V76.6716H17.5897V88.9998ZM23.1083 88.9998H25.6395V81.8162C25.6395 79.8943 26.788 78.6052 28.5692 78.6052C30.327 78.6052 31.1942 79.6482 31.1942 81.4998V88.9998H33.7372V81.0193C33.7372 78.1833 32.1786 76.4373 29.4716 76.4373C27.6083 76.4373 26.3427 77.281 25.6981 78.5349H25.6395V76.6716H23.1083V88.9998ZM41.9627 93.3474C45.4432 93.3474 47.6229 91.4724 47.6229 88.6599V76.6716H45.0799V78.7693H45.0213C44.2948 77.3748 42.9354 76.4373 41.201 76.4373C38.0721 76.4373 36.0096 78.863 36.0096 82.7302V82.7419C36.0096 86.5857 38.0487 89.0115 41.1424 89.0115C42.912 89.0115 44.3182 88.156 45.0213 86.8201H45.0799V88.5076C45.0799 90.2302 43.9667 91.3083 41.951 91.3083C40.369 91.3083 39.3026 90.7693 38.9627 89.9841L38.9159 89.8904H36.4081L36.4198 89.9958C36.7948 91.8826 38.7987 93.3474 41.9627 93.3474ZM41.8573 86.949C39.8534 86.949 38.5995 85.3552 38.5995 82.7771V82.7654C38.5995 80.2224 39.8534 78.6052 41.8573 78.6052C43.7792 78.6052 45.0799 80.2341 45.0799 82.7654V82.7771C45.0799 85.3201 43.7909 86.949 41.8573 86.949ZM55.7537 93.1013H58.285V86.9255H58.3436C59.0701 88.3552 60.4881 89.2458 62.2342 89.2458C65.3279 89.2458 67.3553 86.7732 67.3553 82.8474V82.8357C67.3553 78.8982 65.3397 76.4373 62.199 76.4373C60.4412 76.4373 59.0818 77.3279 58.3436 78.7927H58.285V76.6716H55.7537V93.1013ZM61.5428 87.0662C59.6326 87.0662 58.2732 85.4021 58.2732 82.8474V82.8357C58.2732 80.2693 59.6209 78.6052 61.5428 78.6052C63.5232 78.6052 64.7772 80.2107 64.7772 82.8357V82.8474C64.7772 85.449 63.535 87.0662 61.5428 87.0662ZM74.9949 89.2458C78.5222 89.2458 80.8426 86.8083 80.8426 82.8357V82.8123C80.8426 78.863 78.4988 76.4373 74.9832 76.4373C71.4793 76.4373 69.1472 78.8748 69.1472 82.8123V82.8357C69.1472 86.7966 71.4558 89.2458 74.9949 89.2458ZM75.0066 87.1248C73.0262 87.1248 71.7371 85.5662 71.7371 82.8357V82.8123C71.7371 80.1169 73.0379 78.5583 74.9832 78.5583C76.9637 78.5583 78.2527 80.1169 78.2527 82.8123V82.8357C78.2527 85.5544 76.9871 87.1248 75.0066 87.1248ZM84.5447 74.7732C85.3767 74.7732 86.0212 74.1169 86.0212 73.3201C86.0212 72.5115 85.3767 71.8552 84.5447 71.8552C83.7244 71.8552 83.0681 72.5115 83.0681 73.3201C83.0681 74.1169 83.7244 74.7732 84.5447 74.7732ZM83.2791 88.9998H85.8103V76.6716H83.2791V88.9998ZM88.7976 88.9998H91.3288V81.8162C91.3288 79.8943 92.4773 78.6052 94.2585 78.6052C96.0163 78.6052 96.8835 79.6482 96.8835 81.4998V88.9998H99.4265V81.0193C99.4265 78.1833 97.8679 76.4373 95.1609 76.4373C93.2976 76.4373 92.032 77.281 91.3874 78.5349H91.3288V76.6716H88.7976V88.9998ZM106.574 89.2458C107.09 89.2458 107.57 89.1873 107.863 89.1404V87.1833C107.675 87.2068 107.453 87.2302 107.183 87.2302C106.117 87.2302 105.554 86.8552 105.554 85.6013V78.6873H107.863V76.6716H105.554V73.4607H102.965V76.6716H101.195V78.6873H102.965V85.7537C102.965 88.2146 104.136 89.2458 106.574 89.2458ZM113.393 83.6912H115.819V83.0232C115.819 81.8396 116.253 81.2068 117.764 80.3162C119.311 79.3904 120.225 78.113 120.225 76.3083V76.2966C120.225 73.7771 118.128 71.949 115.046 71.949C111.647 71.949 109.889 73.9646 109.737 76.4841L109.725 76.6248H112.151L112.163 76.5193C112.292 75.0896 113.299 74.1052 114.917 74.1052C116.51 74.1052 117.565 75.0662 117.565 76.4021V76.4138C117.565 77.6091 117.061 78.2888 115.643 79.1443C114.038 80.1052 113.346 81.1599 113.382 82.7537L113.393 83.6912ZM114.624 89.1287C115.503 89.1287 116.171 88.4607 116.171 87.6052C116.171 86.7498 115.503 86.0935 114.624 86.0935C113.768 86.0935 113.089 86.7498 113.089 87.6052C113.089 88.4607 113.768 89.1287 114.624 89.1287Z" fill="white" fill-opacity="0.5"/>
<rect x="-53" y="0.999756" width="283" height="126" rx="31" stroke="url(#paint1_linear_90_135)" stroke-width="2" style="mix-blend-mode:overlay"/>
</g>
<defs>
<filter id="filter0_b_90_135" x="-124" y="-70.0002" width="425" height="268" filterUnits="userSpaceOnUse" color-interpolation-filters="sRGB">
<feFlood flood-opacity="0" result="BackgroundImageFix"/>
<feGaussianBlur in="BackgroundImage" stdDeviation="35"/>
<feComposite in2="SourceAlpha" operator="in" result="effect1_backgroundBlur_90_135"/>
<feBlend mode="normal" in="SourceGraphic" in2="effect1_backgroundBlur_90_135" result="shape"/>
</filter>
<linearGradient id="paint0_linear_90_135" x1="88.5" y1="1.99976" x2="87.213" y2="126.059" gradientUnits="userSpaceOnUse">
<stop stop-color="white"/>
<stop offset="1" stop-color="white" stop-opacity="0"/>
</linearGradient>
<linearGradient id="paint1_linear_90_135" x1="4.20001" y1="5.75733" x2="49.9523" y2="171.088" gradientUnits="userSpaceOnUse">
<stop stop-color="white"/>
<stop offset="0.537367" stop-color="white" stop-opacity="0"/>
<stop offset="1" stop-color="white" stop-opacity="0.77"/>
</linearGradient>
</defs>
</svg>
