<svg width="230" height="128" viewBox="0 0 230 128" fill="none" xmlns="http://www.w3.org/2000/svg">
<g opacity="0.5" filter="url(#filter0_b_90_137)">
<rect x="2" y="1.99976" width="347" height="124" rx="30" fill="url(#paint0_linear_90_137)" fill-opacity="0.5"/>
<path d="M67.5742 56.9998H70.0938L73.7383 44.2498H73.7969L77.4297 56.9998H79.9492L84.5195 40.0896H81.7891L78.6367 53.3435H78.5781L75.0039 40.0896H72.5195L68.9453 53.3435H68.8984L65.7461 40.0896H63.0156L67.5742 56.9998ZM86.7685 56.9998H89.2998V49.863C89.2998 47.9412 90.4599 46.6052 92.206 46.6052C93.9873 46.6052 95.0185 47.824 95.0185 49.863V56.9998H97.5498V49.3826C97.5498 46.406 95.8154 44.4373 93.1787 44.4373C91.3388 44.4373 90.0146 45.2693 89.3584 46.699H89.2998V40.0896H86.7685V56.9998ZM104.006 57.2224C105.635 57.2224 107.064 56.3787 107.779 55.0544H107.826V56.9998H110.369V48.5037C110.369 46.031 108.459 44.4373 105.447 44.4373C102.412 44.4373 100.572 46.0662 100.396 48.1873L100.385 48.3162H102.775L102.799 48.2107C103.01 47.2263 103.912 46.5349 105.377 46.5349C106.947 46.5349 107.826 47.3552 107.826 48.7146V49.6404L104.475 49.8396C101.557 50.0154 99.8925 51.3279 99.8925 53.4724V53.4958C99.8925 55.7107 101.545 57.2224 104.006 57.2224ZM102.447 53.4373V53.4138C102.447 52.3708 103.291 51.7029 104.814 51.6091L107.826 51.4216V52.3826C107.826 53.988 106.478 55.1951 104.697 55.1951C103.338 55.1951 102.447 54.5154 102.447 53.4373ZM117.528 57.2458C118.044 57.2458 118.524 57.1873 118.817 57.1404V55.1833C118.63 55.2068 118.407 55.2302 118.138 55.2302C117.071 55.2302 116.509 54.8552 116.509 53.6013V46.6873H118.817V44.6716H116.509V41.4607H113.919V44.6716H112.149V46.6873H113.919V53.7537C113.919 56.2146 115.091 57.2458 117.528 57.2458ZM127.909 42.7732C128.741 42.7732 129.386 42.1169 129.386 41.3201C129.386 40.5115 128.741 39.8552 127.909 39.8552C127.089 39.8552 126.432 40.5115 126.432 41.3201C126.432 42.1169 127.089 42.7732 127.909 42.7732ZM126.643 56.9998H129.175V44.6716H126.643V56.9998ZM136.779 57.2458C139.685 57.2458 141.795 55.699 141.795 53.449V53.4373C141.795 51.6677 140.834 50.6716 138.314 50.0857L136.31 49.6287C134.986 49.3123 134.482 48.7966 134.482 48.0349V48.0232C134.482 47.0388 135.338 46.3943 136.697 46.3943C138.127 46.3943 138.971 47.1443 139.123 48.2224L139.135 48.3044H141.514L141.502 48.1638C141.373 46.0662 139.615 44.4373 136.697 44.4373C133.861 44.4373 131.939 45.949 131.939 48.1521V48.1638C131.939 49.9568 133.099 51.0818 135.443 51.6208L137.459 52.0779C138.783 52.3943 139.228 52.8513 139.228 53.6482V53.6599C139.228 54.656 138.314 55.2888 136.791 55.2888C135.232 55.2888 134.389 54.6208 134.154 53.4841L134.131 53.3669H131.623L131.635 53.4724C131.892 55.7224 133.697 57.2458 136.779 57.2458ZM153.008 57.2224C154.637 57.2224 156.066 56.3787 156.781 55.0544H156.828V56.9998H159.371V48.5037C159.371 46.031 157.461 44.4373 154.449 44.4373C151.414 44.4373 149.574 46.0662 149.398 48.1873L149.387 48.3162H151.777L151.801 48.2107C152.012 47.2263 152.914 46.5349 154.379 46.5349C155.949 46.5349 156.828 47.3552 156.828 48.7146V49.6404L153.476 49.8396C150.558 50.0154 148.894 51.3279 148.894 53.4724V53.4958C148.894 55.7107 150.547 57.2224 153.008 57.2224ZM151.449 53.4373V53.4138C151.449 52.3708 152.293 51.7029 153.816 51.6091L156.828 51.4216V52.3826C156.828 53.988 155.48 55.1951 153.699 55.1951C152.34 55.1951 151.449 54.5154 151.449 53.4373ZM172.752 57.2458C175.717 57.2458 177.779 55.3474 178.049 52.8748L178.06 52.7927H175.623L175.611 52.8865C175.306 54.2224 174.31 55.1248 172.752 55.1248C170.795 55.1248 169.494 53.5427 169.494 50.8474V50.8357C169.494 48.199 170.771 46.5583 172.74 46.5583C174.392 46.5583 175.33 47.5779 175.599 48.7849L175.623 48.8787H178.037L178.025 48.7966C177.814 46.4763 175.892 44.4373 172.717 44.4373C169.201 44.4373 166.904 46.9099 166.904 50.8123V50.824C166.904 54.7732 169.154 57.2458 172.752 57.2458ZM180.227 56.9998H182.759V49.6521C182.759 47.8123 183.766 46.7458 185.395 46.7458C185.887 46.7458 186.333 46.8044 186.532 46.8865V44.531C186.333 44.4958 186.016 44.4373 185.653 44.4373C184.247 44.4373 183.216 45.3396 182.817 46.781H182.759V44.6716H180.227V56.9998ZM193.199 57.2458C196.187 57.2458 198.086 55.4646 198.484 53.5076L198.508 53.3787H196.105L196.07 53.4724C195.754 54.3982 194.758 55.1716 193.258 55.1716C191.242 55.1716 189.965 53.8123 189.918 51.4802H198.648V50.6248C198.648 46.9216 196.527 44.4373 193.07 44.4373C189.613 44.4373 187.386 47.0154 187.386 50.8708V50.8826C187.386 54.7732 189.578 57.2458 193.199 57.2458ZM193.082 46.5115C194.734 46.5115 195.929 47.5544 196.14 49.6873H189.953C190.175 47.6248 191.441 46.5115 193.082 46.5115ZM204.612 57.2224C206.241 57.2224 207.671 56.3787 208.385 55.0544H208.432V56.9998H210.975V48.5037C210.975 46.031 209.065 44.4373 206.053 44.4373C203.018 44.4373 201.178 46.0662 201.003 48.1873L200.991 48.3162H203.382L203.405 48.2107C203.616 47.2263 204.518 46.5349 205.983 46.5349C207.553 46.5349 208.432 47.3552 208.432 48.7146V49.6404L205.081 49.8396C202.163 50.0154 200.499 51.3279 200.499 53.4724V53.4958C200.499 55.7107 202.151 57.2224 204.612 57.2224ZM203.053 53.4373V53.4138C203.053 52.3708 203.897 51.7029 205.421 51.6091L208.432 51.4216V52.3826C208.432 53.988 207.085 55.1951 205.303 55.1951C203.944 55.1951 203.053 54.5154 203.053 53.4373ZM218.134 57.2458C218.65 57.2458 219.131 57.1873 219.424 57.1404V55.1833C219.236 55.2068 219.013 55.2302 218.744 55.2302C217.677 55.2302 217.115 54.8552 217.115 53.6013V46.6873H219.424V44.6716H217.115V41.4607H214.525V44.6716H212.756V46.6873H214.525V53.7537C214.525 56.2146 215.697 57.2458 218.134 57.2458ZM223.266 42.7732C224.098 42.7732 224.743 42.1169 224.743 41.3201C224.743 40.5115 224.098 39.8552 223.266 39.8552C222.446 39.8552 221.79 40.5115 221.79 41.3201C221.79 42.1169 222.446 42.7732 223.266 42.7732ZM222.001 56.9998H224.532V44.6716H222.001V56.9998ZM230.906 56.9998H233.625L238.043 44.6716H235.406L232.312 54.5271H232.254L229.16 44.6716H226.464L230.906 56.9998ZM244.663 57.2458C247.651 57.2458 249.549 55.4646 249.948 53.5076L249.971 53.3787H247.569L247.534 53.4724C247.217 54.3982 246.221 55.1716 244.721 55.1716C242.706 55.1716 241.428 53.8123 241.381 51.4802H250.112V50.6248C250.112 46.9216 247.991 44.4373 244.534 44.4373C241.077 44.4373 238.85 47.0154 238.85 50.8708V50.8826C238.85 54.7732 241.042 57.2458 244.663 57.2458ZM244.546 46.5115C246.198 46.5115 247.393 47.5544 247.604 49.6873H241.417C241.639 47.6248 242.905 46.5115 244.546 46.5115ZM263.001 57.2458C266.528 57.2458 268.848 54.8083 268.848 50.8357V50.8123C268.848 46.863 266.504 44.4373 262.989 44.4373C259.485 44.4373 257.153 46.8748 257.153 50.8123V50.8357C257.153 54.7966 259.461 57.2458 263.001 57.2458ZM263.012 55.1248C261.032 55.1248 259.743 53.5662 259.743 50.8357V50.8123C259.743 48.1169 261.044 46.5583 262.989 46.5583C264.969 46.5583 266.258 48.1169 266.258 50.8123V50.8357C266.258 53.5544 264.993 55.1248 263.012 55.1248ZM271.179 56.9998H273.71V49.6521C273.71 47.8123 274.718 46.7458 276.347 46.7458C276.839 46.7458 277.285 46.8044 277.484 46.8865V44.531C277.285 44.4958 276.968 44.4373 276.605 44.4373C275.199 44.4373 274.167 45.3396 273.769 46.781H273.71V44.6716H271.179V56.9998ZM64.4922 88.9998H67.0352V78.6873H69.4961V76.6716H66.9883V75.406C66.9883 74.3162 67.5273 73.7654 68.6641 73.7654C68.9805 73.7654 69.2969 73.7888 69.543 73.824V71.949C69.2031 71.8904 68.6406 71.8435 68.125 71.8435C65.6172 71.8435 64.4922 72.9685 64.4922 75.3591V76.6716H62.793V78.6873H64.4922V88.9998ZM76.0576 89.2458C77.9326 89.2458 79.1865 88.3904 79.831 87.1482H79.8896V88.9998H82.4326V76.6716H79.8896V83.8669C79.8896 85.7888 78.7412 87.0662 76.9599 87.0662C75.2021 87.0662 74.3349 86.0349 74.3349 84.1716V76.6716H71.8037V84.6638C71.8037 87.4998 73.3506 89.2458 76.0576 89.2458ZM85.4082 88.9998H87.9394V72.0896H85.4082V88.9998ZM91.0087 88.9998H93.54V72.0896H91.0087V88.9998ZM96.6913 83.281H104.226V80.9958H96.6913V83.281ZM111.913 89.2458C114.819 89.2458 116.929 87.699 116.929 85.449V85.4373C116.929 83.6677 115.968 82.6716 113.448 82.0857L111.444 81.6287C110.12 81.3123 109.616 80.7966 109.616 80.0349V80.0232C109.616 79.0388 110.472 78.3943 111.831 78.3943C113.261 78.3943 114.104 79.1443 114.257 80.2224L114.268 80.3044H116.647L116.636 80.1638C116.507 78.0662 114.749 76.4373 111.831 76.4373C108.995 76.4373 107.073 77.949 107.073 80.1521V80.1638C107.073 81.9568 108.233 83.0818 110.577 83.6208L112.593 84.0779C113.917 84.3943 114.362 84.8513 114.362 85.6482V85.6599C114.362 86.656 113.448 87.2888 111.925 87.2888C110.366 87.2888 109.522 86.6208 109.288 85.4841L109.265 85.3669H106.757L106.768 85.4724C107.026 87.7224 108.831 89.2458 111.913 89.2458ZM124.533 89.2458C127.521 89.2458 129.42 87.4646 129.818 85.5076L129.842 85.3787H127.439L127.404 85.4724C127.088 86.3982 126.092 87.1716 124.592 87.1716C122.576 87.1716 121.299 85.8123 121.252 83.4802H129.982V82.6248C129.982 78.9216 127.861 76.4373 124.404 76.4373C120.947 76.4373 118.721 79.0154 118.721 82.8708V82.8826C118.721 86.7732 120.912 89.2458 124.533 89.2458ZM124.416 78.5115C126.068 78.5115 127.264 79.5544 127.474 81.6873H121.287C121.51 79.6248 122.775 78.5115 124.416 78.5115ZM132.325 88.9998H134.856V81.6521C134.856 79.8123 135.864 78.7458 137.493 78.7458C137.985 78.7458 138.431 78.8044 138.63 78.8865V76.531C138.431 76.4958 138.114 76.4373 137.751 76.4373C136.345 76.4373 135.313 77.3396 134.915 78.781H134.856V76.6716H132.325V88.9998ZM143.961 88.9998H146.679L151.097 76.6716H148.461L145.367 86.5271H145.308L142.215 76.6716H139.519L143.961 88.9998ZM154.296 74.7732C155.128 74.7732 155.772 74.1169 155.772 73.3201C155.772 72.5115 155.128 71.8552 154.296 71.8552C153.475 71.8552 152.819 72.5115 152.819 73.3201C152.819 74.1169 153.475 74.7732 154.296 74.7732ZM153.03 88.9998H155.561V76.6716H153.03V88.9998ZM163.845 89.2458C166.81 89.2458 168.873 87.3474 169.142 84.8748L169.154 84.7927H166.717L166.705 84.8865C166.4 86.2224 165.404 87.1248 163.845 87.1248C161.888 87.1248 160.588 85.5427 160.588 82.8474V82.8357C160.588 80.199 161.865 78.5583 163.834 78.5583C165.486 78.5583 166.424 79.5779 166.693 80.7849L166.717 80.8787H169.131L169.119 80.7966C168.908 78.4763 166.986 76.4373 163.81 76.4373C160.295 76.4373 157.998 78.9099 157.998 82.8123V82.824C157.998 86.7732 160.248 89.2458 163.845 89.2458ZM176.583 89.2458C179.571 89.2458 181.469 87.4646 181.868 85.5076L181.891 85.3787H179.489L179.454 85.4724C179.137 86.3982 178.141 87.1716 176.641 87.1716C174.626 87.1716 173.348 85.8123 173.301 83.4802H182.032V82.6248C182.032 78.9216 179.911 76.4373 176.454 76.4373C172.997 76.4373 170.77 79.0154 170.77 82.8708V82.8826C170.77 86.7732 172.962 89.2458 176.583 89.2458ZM176.466 78.5115C178.118 78.5115 179.313 79.5544 179.524 81.6873H173.337C173.559 79.6248 174.825 78.5115 176.466 78.5115ZM193.245 89.2224C194.874 89.2224 196.303 88.3787 197.018 87.0544H197.065V88.9998H199.608V80.5037C199.608 78.031 197.698 76.4373 194.686 76.4373C191.651 76.4373 189.811 78.0662 189.635 80.1873L189.624 80.3162H192.014L192.038 80.2107C192.249 79.2263 193.151 78.5349 194.616 78.5349C196.186 78.5349 197.065 79.3552 197.065 80.7146V81.6404L193.714 81.8396C190.796 82.0154 189.132 83.3279 189.132 85.4724V85.4958C189.132 87.7107 190.784 89.2224 193.245 89.2224ZM191.686 85.4373V85.4138C191.686 84.3708 192.53 83.7029 194.053 83.6091L197.065 83.4216V84.3826C197.065 85.988 195.717 87.1951 193.936 87.1951C192.577 87.1951 191.686 86.5154 191.686 85.4373ZM207.845 93.3474C211.326 93.3474 213.506 91.4724 213.506 88.6599V76.6716H210.963V78.7693H210.904C210.177 77.3748 208.818 76.4373 207.084 76.4373C203.955 76.4373 201.892 78.863 201.892 82.7302V82.7419C201.892 86.5857 203.931 89.0115 207.025 89.0115C208.795 89.0115 210.201 88.156 210.904 86.8201H210.963V88.5076C210.963 90.2302 209.849 91.3083 207.834 91.3083C206.252 91.3083 205.185 90.7693 204.845 89.9841L204.799 89.8904H202.291L202.302 89.9958C202.677 91.8826 204.681 93.3474 207.845 93.3474ZM207.74 86.949C205.736 86.949 204.482 85.3552 204.482 82.7771V82.7654C204.482 80.2224 205.736 78.6052 207.74 78.6052C209.662 78.6052 210.963 80.2341 210.963 82.7654V82.7771C210.963 85.3201 209.674 86.949 207.74 86.949ZM221.649 89.2458C224.637 89.2458 226.536 87.4646 226.934 85.5076L226.958 85.3787H224.555L224.52 85.4724C224.204 86.3982 223.208 87.1716 221.708 87.1716C219.692 87.1716 218.415 85.8123 218.368 83.4802H227.098V82.6248C227.098 78.9216 224.977 76.4373 221.52 76.4373C218.063 76.4373 215.837 79.0154 215.837 82.8708V82.8826C215.837 86.7732 218.028 89.2458 221.649 89.2458ZM221.532 78.5115C223.184 78.5115 224.38 79.5544 224.59 81.6873H218.403C218.626 79.6248 219.891 78.5115 221.532 78.5115ZM229.441 88.9998H231.972V81.8162C231.972 79.8943 233.121 78.6052 234.902 78.6052C236.66 78.6052 237.527 79.6482 237.527 81.4998V88.9998H240.07V81.0193C240.07 78.1833 238.511 76.4373 235.804 76.4373C233.941 76.4373 232.675 77.281 232.031 78.5349H231.972V76.6716H229.441V88.9998ZM248.19 89.2458C251.155 89.2458 253.217 87.3474 253.487 84.8748L253.499 84.7927H251.061L251.049 84.8865C250.745 86.2224 249.749 87.1248 248.19 87.1248C246.233 87.1248 244.932 85.5427 244.932 82.8474V82.8357C244.932 80.199 246.21 78.5583 248.178 78.5583C249.831 78.5583 250.768 79.5779 251.038 80.7849L251.061 80.8787H253.475L253.463 80.7966C253.253 78.4763 251.331 76.4373 248.155 76.4373C244.639 76.4373 242.342 78.9099 242.342 82.8123V82.824C242.342 86.7732 244.592 89.2458 248.19 89.2458ZM257.119 93.113C259.533 93.113 260.822 92.1287 261.736 89.574L266.33 76.6716H263.658L260.552 86.7029H260.47L257.365 76.6716H254.623L259.111 89.0115L258.9 89.5974C258.478 90.7927 257.822 91.1091 256.627 91.1091C256.287 91.1091 255.994 91.0623 255.794 91.0154V92.9958C256.099 93.0544 256.627 93.113 257.119 93.113ZM271.239 83.6912H273.665V83.0232C273.665 81.8396 274.098 81.2068 275.61 80.3162C277.157 79.3904 278.071 78.113 278.071 76.3083V76.2966C278.071 73.7771 275.973 71.949 272.891 71.949C269.493 71.949 267.735 73.9646 267.583 76.4841L267.571 76.6248H269.997L270.008 76.5193C270.137 75.0896 271.145 74.1052 272.762 74.1052C274.356 74.1052 275.411 75.0662 275.411 76.4021V76.4138C275.411 77.6091 274.907 78.2888 273.489 79.1443C271.883 80.1052 271.192 81.1599 271.227 82.7537L271.239 83.6912ZM272.469 89.1287C273.348 89.1287 274.016 88.4607 274.016 87.6052C274.016 86.7498 273.348 86.0935 272.469 86.0935C271.614 86.0935 270.934 86.7498 270.934 87.6052C270.934 88.4607 271.614 89.1287 272.469 89.1287Z" fill="white" fill-opacity="0.5"/>
<rect x="1" y="0.999756" width="349" height="126" rx="31" stroke="url(#paint1_linear_90_137)" stroke-width="2" style="mix-blend-mode:overlay"/>
</g>
<defs>
<filter id="filter0_b_90_137" x="-70" y="-70.0002" width="491" height="268" filterUnits="userSpaceOnUse" color-interpolation-filters="sRGB">
<feFlood flood-opacity="0" result="BackgroundImageFix"/>
<feGaussianBlur in="BackgroundImage" stdDeviation="35"/>
<feComposite in2="SourceAlpha" operator="in" result="effect1_backgroundBlur_90_137"/>
<feBlend mode="normal" in="SourceGraphic" in2="effect1_backgroundBlur_90_137" result="shape"/>
</filter>
<linearGradient id="paint0_linear_90_137" x1="175.5" y1="1.99976" x2="174.458" y2="126.064" gradientUnits="userSpaceOnUse">
<stop stop-color="white"/>
<stop offset="1" stop-color="white" stop-opacity="0"/>
</linearGradient>
<linearGradient id="paint1_linear_90_137" x1="71.4" y1="5.75733" x2="109.38" y2="175.238" gradientUnits="userSpaceOnUse">
<stop stop-color="white"/>
<stop offset="0.537367" stop-color="white" stop-opacity="0"/>
<stop offset="1" stop-color="white" stop-opacity="0.77"/>
</linearGradient>
</defs>
</svg>
