<svg width="150" height="37" viewBox="0 0 150 37" fill="none" xmlns="http://www.w3.org/2000/svg">
<path d="M83.6271 20.2143V0.499023H88.5196V7.99267H96.0773V0.499023H100.97V20.2143H96.0773V12.6934H88.5196V20.2143H83.6271ZM104.333 20.2143V0.499023H112.293C113.316 0.499023 114.313 0.627213 115.289 0.883593C116.264 1.13997 117.187 1.54091 118.058 2.0864C118.928 2.63188 119.692 3.28511 120.35 4.04606C121.006 4.80702 121.525 5.73026 121.909 6.81715C122.291 7.90267 122.482 9.08365 122.482 10.3574C122.482 11.6215 122.288 12.7984 121.901 13.8839C121.513 14.9695 120.988 15.8954 120.327 16.6605C119.667 17.4255 118.895 18.0788 118.016 18.6202C117.136 19.1616 116.206 19.5625 115.224 19.823C114.244 20.0848 113.244 20.2143 112.222 20.2143H104.333ZM109.227 15.7045H112.137C112.72 15.7045 113.302 15.5927 113.881 15.3677C114.46 15.1427 114.997 14.8181 115.494 14.3913C115.99 13.9644 116.391 13.4012 116.697 12.7002C117.002 11.9993 117.153 11.2179 117.153 10.356C117.153 9.42049 117.003 8.5968 116.703 7.88085C116.402 7.16626 116.006 6.60713 115.514 6.20347C115.022 5.79981 114.495 5.49979 113.935 5.30341C113.375 5.10704 112.794 5.00749 112.192 5.00749H109.227V15.7045ZM125.623 20.2143V0.499023H130.913L136.523 9.25684L142.173 0.499023H147.408V20.2143H142.653V8.10177L136.632 17.3955H136.345L130.379 8.10177V20.2143H125.623ZM83.4265 33.3579V23.1559H84.4242L88.487 29.8299L92.5716 23.1559H93.5409V33.3579H92.6001V24.8496L88.5575 31.465H88.3949L84.3673 24.8483V33.3565H83.4265V33.3579ZM95.8387 31.1664C95.8387 30.7 95.9675 30.2922 96.2237 29.9431C96.4812 29.594 96.812 29.3322 97.2174 29.1576C97.6227 28.9844 98.066 28.8972 98.5472 28.8972C99.3579 28.8972 100.068 29.0826 100.676 29.4522V28.5426C100.676 28.1185 100.525 27.7598 100.223 27.4693C99.9205 27.1789 99.4636 27.033 98.8509 27.033C98.3886 27.033 97.925 27.108 97.4614 27.2552C96.9964 27.4039 96.5897 27.5894 96.2413 27.8144V26.8366C97.0669 26.4125 97.9358 26.1997 98.8509 26.1997C99.3416 26.1997 99.7687 26.2665 100.135 26.4029C100.499 26.5379 100.788 26.7234 100.998 26.9579C101.208 27.1925 101.363 27.4516 101.465 27.7325C101.566 28.0148 101.616 28.3203 101.616 28.6476V33.3565H100.704V32.7306C100.459 32.9638 100.15 33.1629 99.7781 33.3293C99.4053 33.4943 98.9959 33.5774 98.5472 33.5774C97.7461 33.5774 97.094 33.3647 96.5911 32.9392C96.0895 32.5137 95.8387 31.9233 95.8387 31.1664ZM96.8215 31.1664C96.8215 31.6614 96.9977 32.0542 97.3488 32.3419C97.7 32.6297 98.1514 32.7742 98.7031 32.7742C99.1125 32.7742 99.4921 32.6897 99.8419 32.5206C100.19 32.3515 100.468 32.1674 100.676 31.9669V30.3154C100.482 30.1627 100.208 30.0222 99.8514 29.894C99.4948 29.7658 99.1125 29.7018 98.7018 29.7018C98.1555 29.7018 97.704 29.834 97.3502 30.0986C96.9991 30.3618 96.8215 30.7177 96.8215 31.1664ZM103.872 33.3579V26.4356H104.798V27.7803C104.977 27.3207 105.27 26.9416 105.675 26.6457C106.081 26.3497 106.533 26.2011 107.034 26.2011C107.071 26.2011 107.254 26.2174 107.585 26.2502V27.3112C107.359 27.2634 107.145 27.2402 106.941 27.2402C106.409 27.2402 105.961 27.393 105.601 27.6998C105.24 28.0067 104.977 28.3817 104.812 28.8276V33.3593H103.872V33.3579ZM109.403 33.3579V22.7931H110.344V29.6308L113.866 26.437H115.182L112.304 29.0622L115.33 33.3593H114.129L111.59 29.7018L110.345 30.8405V33.3593H109.403V33.3579ZM115.987 29.8572C115.987 29.3117 116.077 28.8085 116.256 28.3449C116.435 27.8826 116.678 27.4966 116.985 27.1857C117.292 26.8748 117.651 26.6334 118.062 26.4602C118.472 26.287 118.906 26.2011 119.364 26.2011C120.34 26.2011 121.127 26.5338 121.725 27.2007C122.322 27.8675 122.622 28.7294 122.622 29.7863C122.622 29.9854 122.613 30.1422 122.595 30.2554H117.012C117.026 30.9673 117.273 31.551 117.75 32.0064C118.227 32.4619 118.806 32.6897 119.484 32.6897C120.027 32.6897 120.521 32.6106 120.961 32.4524C121.402 32.2942 121.856 32.0405 122.32 31.6914V32.6324C121.517 33.2624 120.571 33.5788 119.482 33.5788C119.005 33.5788 118.558 33.497 118.14 33.3333C117.723 33.1697 117.351 32.9351 117.029 32.6297C116.705 32.3228 116.451 31.9328 116.264 31.4555C116.08 30.9782 115.987 30.445 115.987 29.8572ZM117.041 29.4236H121.638C121.632 28.7171 121.421 28.1512 121.002 27.7271C120.583 27.303 120.038 27.0902 119.364 27.0902C118.706 27.0902 118.161 27.3098 117.729 27.7475C117.298 28.1853 117.069 28.7444 117.041 29.4236ZM123.746 27.2675V26.4356H125.082V24.1664L125.966 23.64V26.437H127.699V27.2689H125.966V31.6628C125.966 32.0283 126.059 32.301 126.242 32.4797C126.426 32.6569 126.681 32.7469 127.006 32.7469C127.223 32.7469 127.453 32.7033 127.699 32.6188V33.4315C127.402 33.5297 127.083 33.5788 126.744 33.5788C126.231 33.5788 125.816 33.4261 125.5 33.1233C125.184 32.8206 125.026 32.3733 125.026 31.7855V27.2675H123.746ZM129.658 24.195C129.507 24.0382 129.431 23.8487 129.431 23.625C129.431 23.4014 129.506 23.2132 129.658 23.055C129.81 22.8981 129.995 22.8204 130.216 22.8204C130.437 22.8204 130.623 22.8981 130.771 23.0522C130.918 23.2064 130.993 23.3973 130.993 23.625C130.993 23.8528 130.918 24.0437 130.771 24.1978C130.623 24.3519 130.437 24.4296 130.216 24.4296C129.995 24.4296 129.808 24.3505 129.658 24.195ZM129.75 33.3579V26.4356H130.691V33.3579H129.75ZM133.237 33.3579V26.4356H134.163V27.2116C134.412 26.917 134.726 26.6743 135.103 26.4847C135.48 26.2952 135.907 26.2011 136.383 26.2011C137.099 26.2011 137.705 26.4316 138.2 26.8911C138.696 27.3507 138.943 27.9589 138.943 28.7131V33.3593H138.002V28.9313C138.002 28.3844 137.827 27.9412 137.478 27.6016C137.13 27.2621 136.696 27.0916 136.177 27.0916C135.399 27.0916 134.732 27.4434 134.176 28.1471V33.3593H133.237V33.3579ZM140.76 29.7795C140.76 28.7199 141.068 27.858 141.682 27.1952C142.296 26.5325 143.08 26.2011 144.032 26.2011C144.547 26.2011 145.017 26.3006 145.445 26.4997C145.873 26.6988 146.214 26.9552 146.469 27.2689V26.4356H147.41V33.3156C147.41 33.6716 147.372 34.0043 147.296 34.3152C147.22 34.6262 147.097 34.9166 146.924 35.1866C146.752 35.4567 146.538 35.6885 146.281 35.8808C146.023 36.0731 145.703 36.2244 145.318 36.3363C144.933 36.4481 144.501 36.504 144.019 36.504C143.481 36.504 142.965 36.4263 142.47 36.2722C141.975 36.1181 141.556 35.9299 141.212 35.7062V34.6957C141.646 35.0039 142.116 35.2344 142.623 35.3857C143.13 35.5371 143.595 35.6135 144.019 35.6135C144.835 35.6135 145.448 35.4185 145.858 35.0285C146.266 34.6384 146.47 34.0698 146.47 33.3238V32.2887C146.215 32.6024 145.874 32.8588 145.447 33.0579C145.02 33.257 144.548 33.3565 144.033 33.3565C143.077 33.3565 142.292 33.0251 141.681 32.3624C141.067 31.701 140.76 30.8391 140.76 29.7795ZM141.745 29.7795C141.745 30.6304 141.974 31.2919 142.432 31.7623C142.89 32.2328 143.477 32.4687 144.196 32.4687C144.658 32.4687 145.097 32.3515 145.509 32.1155C145.923 31.8796 146.243 31.5973 146.469 31.27V28.2876C146.252 27.9644 145.934 27.6834 145.516 27.4462C145.098 27.2089 144.658 27.0889 144.196 27.0889C143.492 27.0889 142.908 27.3357 142.443 27.828C141.976 28.3203 141.745 28.9708 141.745 29.7795Z" fill="white"/>
<path d="M76.6469 6.55804C78.3727 5.63616 79.5222 3.81423 79.4043 1.85184C79.3758 1.36908 78.9895 0.575392 78.9596 0.499023L52.907 12.2025C52.907 15.6704 50.1117 18.4824 46.6643 18.4824H46.4366L43.9124 21.0435L42.2626 31.1446L41.3367 25.376C41.5834 25.2642 41.7542 25.0133 41.7542 24.7242C41.7542 24.3546 41.4749 24.0491 41.1171 24.0123L40.751 21.7335C40.9964 21.6203 41.1659 21.3708 41.1659 21.083C41.1659 20.6889 40.8473 20.3671 40.4541 20.3671C40.2969 20.3671 40.1505 20.4189 40.0325 20.5076L37.7998 18.7688C37.8337 18.6843 37.854 18.5915 37.854 18.4947C37.854 18.0992 37.5355 17.7787 37.1423 17.7787C36.8061 17.7787 36.5228 18.0147 36.4496 18.3324C35.0696 18.2983 33.7383 17.7624 32.7162 16.8078C31.6479 15.8123 31.004 14.4444 30.9078 12.9948C31.2046 12.9075 31.4215 12.6321 31.4215 12.3075C31.4215 11.912 31.1016 11.5915 30.7098 11.5915C30.4807 11.5915 30.2774 11.7006 30.1472 11.8684L4.87819 1.30771C4.88225 1.27771 4.88497 1.24771 4.88497 1.21634C4.88497 0.820862 4.56504 0.500387 4.17326 0.500387C3.78012 0.500387 3.46155 0.820862 3.46155 1.21634C3.46155 1.61046 3.78012 1.9323 4.17326 1.9323C4.40236 1.9323 4.60571 1.8232 4.73585 1.6541L29.2688 11.9079L13.7807 9.64551L8.6577 5.2325C8.62381 5.2025 8.58043 5.1875 8.53705 5.1875H4.17326V5.56252H8.46927L13.1964 9.6346H6.57138C6.49004 9.33049 6.21349 9.10547 5.88543 9.10547C5.49229 9.10547 5.17372 9.42731 5.17372 9.82143C5.17372 10.2169 5.49229 10.5374 5.88543 10.5374C6.21349 10.5374 6.49004 10.3137 6.57138 10.0096H13.6885L30.0049 12.3907V12.392L21.8535 15.7386L19.0121 12.5925C18.9782 12.5557 18.9294 12.5325 18.8792 12.5311L11.5384 12.3034C11.5371 12.3034 11.5344 12.3034 11.533 12.3034H7.76705V12.6784H11.4517L14.3202 15.7727H9.47922V16.1477H14.6686L17.2226 18.9038H13.1164V19.2788H17.6523C17.7269 19.2788 17.7933 19.2338 17.8232 19.1656C17.853 19.0975 17.8394 19.017 17.7893 18.9638L15.1797 16.1491H21.8033C21.8277 16.1491 21.8507 16.145 21.8738 16.1355L30.1472 12.7384C30.1811 12.7821 30.2191 12.8216 30.2625 12.8571L27.5593 18.9038H22.1029V19.0906L22.0161 18.9243L16.6722 21.7349L16.8457 22.0676L22.149 19.2788H27.3912L26.304 21.709L20.8706 24.2251L21.0265 24.566L26.5101 22.0322L30.661 20.7271L33.1405 22.8109L25.7631 26.3675C25.633 26.2161 25.4405 26.1193 25.2249 26.1193C24.8332 26.1193 24.5132 26.4397 24.5132 26.8352C24.5132 27.2293 24.8332 27.5512 25.2249 27.5512C25.6181 27.5512 25.9366 27.2307 25.9366 26.8352C25.9366 26.7902 25.9326 26.7479 25.9244 26.7057L30.2218 24.6342L32.8422 27.1734L29.83 29.1085L30.0307 29.4249L33.2422 27.363C33.291 27.3316 33.3221 27.2798 33.3276 27.2239C33.333 27.1666 33.3127 27.1093 33.2706 27.0698L31.9286 25.7688L39.9282 21.5644C40.0434 21.6926 40.2034 21.7785 40.3837 21.7963L40.7497 24.0737C40.5029 24.1869 40.3321 24.4364 40.3321 24.7269C40.3321 24.8292 40.3538 24.9274 40.3931 25.016L33.0253 31.0314L33.2598 31.3232L38.155 27.3262L37.3321 31.3519C36.9607 31.375 36.6651 31.6873 36.6651 32.0665C36.6651 32.4619 36.9837 32.7824 37.3769 32.7824C37.77 32.7824 38.0886 32.4619 38.0886 32.0665C38.0886 31.7883 37.93 31.5469 37.6981 31.4282L38.6132 26.9525L40.629 25.3079C40.7266 25.3788 40.8432 25.4251 40.9693 25.4388L41.5088 28.7963L39.7736 30.955L40.0637 31.1909L41.5888 29.294L41.9372 31.4596L42.0809 32.3542L42.0836 32.3706L42.2653 33.3593L42.6394 32.9665C43.1817 32.3965 43.4853 31.6369 43.4853 30.8473V30.8173L43.8202 31.3573C44.0425 31.716 44.3489 32.0065 44.7041 32.2083C45.0592 32.4101 45.4646 32.5233 45.8862 32.5301L46.0922 30.1572C46.705 31.3396 47.8925 32.1074 49.2156 32.1769L49.3498 32.1837L49.0204 29.9459L49.1194 30.1559C49.3254 30.5964 49.6508 30.9578 50.0439 31.2073C50.437 31.4582 50.8993 31.5987 51.3833 31.5987L50.9915 28.7444C51.6951 29.744 52.9314 30.2132 54.1163 29.9336L54.6951 29.7972L53.4249 27.7285L54.3426 28.3217C54.9717 28.7281 55.7308 28.874 56.4642 28.7281L57.5569 28.5099L56.208 27.0534L56.4601 27.1366C57.6192 27.5157 58.8637 27.5512 60.039 27.2266C60.1 27.2102 60.1529 27.1939 60.1909 27.1816L58.7715 25.3788L59.2948 25.5751C59.936 25.7565 60.5799 25.9597 61.3526 25.9597C62.0942 25.9597 62.9536 25.7729 64.0422 25.2001L61.3838 23.1804L61.5736 23.2473C63.2898 23.85 65.1566 23.8664 66.885 23.295L66.969 23.2677L64.4896 21.5535L65.2487 21.7335C67.0409 22.1577 68.9279 21.7676 70.4096 20.6657L70.8245 20.3575L67.1154 19.0975L69.8267 19.0347C71.1471 19.0047 72.4173 18.4892 73.3636 17.5619C73.59 17.341 73.7676 17.131 73.8394 16.9646L70.0151 16.1586L71.7517 16.0986C72.9921 16.0564 74.1864 15.6186 75.1639 14.8481C75.8403 14.3135 76.4802 13.7871 76.4666 13.7203L72.9867 13.5485L74.4088 13.288C75.839 13.0262 77.1065 12.1875 77.8887 10.9547C78.0432 10.7106 78.1503 10.4978 78.1693 10.3546L74.1376 10.491L75.8539 10.0887C77.1336 9.78733 78.2588 9.01001 78.9664 7.89721C79.1291 7.63947 79.2416 7.41173 79.2497 7.25899H75.3347L76.6469 6.55804ZM4.1719 1.68137C3.91704 1.68137 3.70827 1.47272 3.70827 1.21498C3.70827 0.958598 3.91569 0.748585 4.1719 0.748585C4.42405 0.748585 4.62875 0.951779 4.63417 1.20407C4.63417 1.2068 4.63417 1.21089 4.63417 1.21498C4.63417 1.34862 4.57859 1.46727 4.49048 1.55045C4.40778 1.63228 4.29526 1.68137 4.1719 1.68137ZM5.88407 10.2892C5.62921 10.2892 5.42044 10.0805 5.42044 9.82279C5.42044 9.56641 5.62786 9.3564 5.88407 9.3564C6.0725 9.3564 6.23518 9.47095 6.30703 9.6346C6.33279 9.69187 6.34634 9.7546 6.34634 9.82143C6.34634 9.88825 6.33279 9.95234 6.30703 10.0096C6.23518 10.1746 6.0725 10.2892 5.88407 10.2892ZM14.8299 15.7768L11.9736 12.6962L18.787 12.9075L21.379 15.7768H14.8299ZM25.6872 26.8352C25.6872 27.0916 25.4798 27.3003 25.2236 27.3003C24.9674 27.3003 24.7599 27.0916 24.7599 26.8352C24.7599 26.5788 24.9674 26.3688 25.2236 26.3688C25.3388 26.3688 25.4432 26.4111 25.5245 26.4807C25.6208 26.5638 25.6818 26.6838 25.6858 26.8189C25.6872 26.8257 25.6872 26.8298 25.6872 26.8352ZM37.8391 32.0637C37.8391 32.3201 37.6317 32.5301 37.3755 32.5301C37.1206 32.5301 36.9132 32.3215 36.9132 32.0637C36.9132 31.8401 37.0691 31.6532 37.2792 31.6082C37.3104 31.6014 37.343 31.5973 37.3769 31.5973C37.4772 31.5973 37.5694 31.6301 37.6453 31.6846C37.7632 31.7692 37.8391 31.9069 37.8391 32.0637ZM37.1423 18.0269C37.3972 18.0269 37.606 18.2356 37.606 18.4933C37.606 18.5315 37.6019 18.5697 37.5924 18.6052C37.5612 18.7334 37.4758 18.8411 37.3633 18.9025C37.2969 18.9379 37.2223 18.9584 37.1423 18.9584C37.0027 18.9584 36.878 18.8956 36.7939 18.7988C36.7221 18.717 36.6787 18.6093 36.6787 18.4933C36.6787 18.4361 36.6895 18.3815 36.7085 18.3311C36.775 18.1538 36.9444 18.0269 37.1423 18.0269ZM30.7085 11.8397C30.9633 11.8397 31.1721 12.0484 31.1721 12.3061C31.1721 12.4957 31.0582 12.6607 30.8956 12.7316C30.8386 12.7575 30.7763 12.7712 30.7098 12.7712C30.455 12.7712 30.2462 12.5625 30.2462 12.3048C30.2462 12.1711 30.3018 12.0525 30.3899 11.9679C30.4726 11.8888 30.5865 11.8397 30.7085 11.8397ZM26.7839 21.5522L30.5444 13.1407C30.6759 14.6395 31.3551 16.0495 32.4627 17.0819C33.4279 17.9833 34.6534 18.5356 35.9439 18.6733L26.7839 21.5522ZM31.6466 25.492L30.5824 24.4596L33.5634 23.0223C33.6204 22.9936 33.6597 22.9391 33.6678 22.8763C33.676 22.8122 33.6516 22.7495 33.6028 22.7086L31.0853 20.5935L36.5431 18.8779C36.6692 19.077 36.8915 19.2093 37.1423 19.2093C37.3023 19.2093 37.4514 19.1561 37.5707 19.0647L39.8007 20.7994C39.7641 20.8853 39.7438 20.9821 39.7438 21.0817C39.7438 21.1321 39.7492 21.1812 39.7587 21.229L31.6466 25.492ZM40.343 21.5331C40.2752 21.5167 40.2128 21.484 40.1613 21.4403C40.0637 21.3585 40.0014 21.2399 39.9946 21.1049C39.9932 21.0967 39.9932 21.0885 39.9932 21.0803C39.9932 21.0394 39.9986 20.9985 40.0095 20.9603C40.042 20.8335 40.1288 20.7271 40.2427 20.6671C40.3064 20.633 40.3796 20.6139 40.4569 20.6139C40.7117 20.6139 40.9205 20.8226 40.9205 21.0803C40.9205 21.2426 40.8378 21.3858 40.7117 21.469C40.6385 21.5181 40.5504 21.5467 40.4569 21.5467C40.4162 21.5467 40.3782 21.5413 40.343 21.5331ZM40.9273 25.1728C40.8947 25.1647 40.8622 25.1524 40.8324 25.1374C40.7171 25.0787 40.6317 24.9724 40.5978 24.8456C40.587 24.8074 40.5816 24.7651 40.5816 24.7228C40.5816 24.5592 40.6656 24.4146 40.7931 24.3328C40.8649 24.2851 40.9517 24.2578 41.0438 24.2578C41.0845 24.2578 41.1238 24.2632 41.1604 24.2742C41.3597 24.326 41.5061 24.5087 41.5061 24.7242C41.5061 24.8878 41.4221 25.031 41.2946 25.1142C41.2228 25.1633 41.136 25.1906 41.0425 25.1906C41.0032 25.1892 40.9639 25.1838 40.9273 25.1728Z" fill="white"/>
<path d="M22.3185 15.9648C22.3185 15.6784 22.0867 15.4438 21.8006 15.4438C21.5146 15.4438 21.2828 15.677 21.2828 15.9648C21.2828 16.2525 21.5146 16.4857 21.8006 16.4857C22.0867 16.4857 22.3185 16.2512 22.3185 15.9648Z" fill="white"/>
<path d="M17.9248 9.97119C17.6402 9.97119 17.407 10.2044 17.407 10.4921C17.407 10.7785 17.6388 11.0131 17.9248 11.0131C18.2109 11.0131 18.4427 10.7799 18.4427 10.4921C18.4427 10.2044 18.2109 9.97119 17.9248 9.97119Z" fill="white"/>
<path d="M18.8792 12.2026C18.5946 12.2026 18.3614 12.4358 18.3614 12.7236C18.3614 13.0113 18.5932 13.2445 18.8792 13.2445C19.1653 13.2445 19.3971 13.0113 19.3971 12.7236C19.3971 12.4358 19.1653 12.2026 18.8792 12.2026Z" fill="white"/>
<path d="M14.6577 15.3579C14.3731 15.3579 14.1399 15.5911 14.1399 15.8789C14.1399 16.1666 14.3717 16.3998 14.6577 16.3998C14.9438 16.3998 15.1756 16.1666 15.1756 15.8789C15.1756 15.5911 14.9424 15.3579 14.6577 15.3579Z" fill="white"/>
<path d="M27.7004 19.6171C27.9864 19.6171 28.2183 19.3838 28.2183 19.0961C28.2183 18.8084 27.9864 18.5752 27.7004 18.5752C27.4144 18.5752 27.1826 18.8084 27.1826 19.0961C27.1826 19.3838 27.4144 19.6171 27.7004 19.6171Z" fill="white"/>
<path d="M22.0473 18.5752C21.7626 18.5752 21.5295 18.8084 21.5295 19.0961C21.5295 19.3839 21.7613 19.6171 22.0473 19.6171C22.3334 19.6171 22.5652 19.3839 22.5652 19.0961C22.5652 18.8084 22.332 18.5752 22.0473 18.5752Z" fill="white"/>
<path d="M30.7085 20.0015C30.4238 20.0015 30.1907 20.2347 30.1907 20.5224C30.1907 20.8101 30.4225 21.0433 30.7085 21.0433C30.9946 21.0433 31.2264 20.8101 31.2264 20.5224C31.2264 20.2347 30.9946 20.0015 30.7085 20.0015Z" fill="white"/>
<path d="M33.333 22.2256C33.0484 22.2256 32.8152 22.4588 32.8152 22.7465C32.8152 23.0329 33.047 23.2675 33.333 23.2675C33.6191 23.2675 33.8509 23.0343 33.8509 22.7465C33.8509 22.4588 33.6191 22.2256 33.333 22.2256Z" fill="white"/>
<path d="M31.6181 25.1987C31.3334 25.1987 31.1003 25.4319 31.1003 25.7197C31.1003 26.0061 31.3321 26.2406 31.6181 26.2406C31.9042 26.2406 32.136 26.0074 32.136 25.7197C32.1346 25.4319 31.9028 25.1987 31.6181 25.1987Z" fill="white"/>
<path d="M33.1432 26.6851C32.8585 26.6851 32.6254 26.9183 32.6254 27.206C32.6254 27.4938 32.8572 27.727 33.1432 27.727C33.4293 27.727 33.6611 27.4938 33.6611 27.206C33.6611 26.9183 33.4279 26.6851 33.1432 26.6851Z" fill="white"/>
<path d="M38.4438 26.3262C38.1591 26.3262 37.9259 26.5594 37.9259 26.8471C37.9259 27.1335 38.1577 27.3681 38.4438 27.3681C38.7298 27.3681 38.9616 27.1349 38.9616 26.8471C38.9603 26.5594 38.7284 26.3262 38.4438 26.3262Z" fill="white"/>
<path d="M26.3501 21.3608C26.0654 21.3608 25.8323 21.594 25.8323 21.8818C25.8323 22.1695 26.0641 22.4027 26.3501 22.4027C26.6362 22.4027 26.868 22.1695 26.868 21.8818C26.868 21.594 26.6362 21.3608 26.3501 21.3608Z" fill="white"/>
<path d="M13.6994 9.30273C13.4147 9.30273 13.1815 9.53593 13.1815 9.82368C13.1815 10.1114 13.4133 10.3446 13.6994 10.3446C13.9854 10.3446 14.2172 10.1114 14.2172 9.82368C14.2172 9.53593 13.9854 9.30273 13.6994 9.30273Z" fill="white"/>
<path d="M8.52488 4.85596C8.24019 4.85596 8.00702 5.08915 8.00702 5.3769C8.00702 5.66464 8.23884 5.89784 8.52488 5.89784C8.81092 5.89784 9.04273 5.66464 9.04273 5.3769C9.04273 5.08915 8.80956 4.85596 8.52488 4.85596Z" fill="white"/>
<path d="M11.5357 11.9746C11.2511 11.9746 11.0179 12.2078 11.0179 12.4956C11.0179 12.7833 11.2497 13.0165 11.5357 13.0165C11.8218 13.0165 12.0536 12.7833 12.0536 12.4956C12.0536 12.2078 11.8204 11.9746 11.5357 11.9746Z" fill="white"/>
</svg>
