<svg width="82" height="82" viewBox="0 0 82 82" fill="none" xmlns="http://www.w3.org/2000/svg">
<g filter="url(#filter0_b_368_635)">
<rect x="1" y="1" width="80" height="80" rx="16" fill="url(#paint0_radial_368_635)" fill-opacity="0.16"/>
<rect x="1" y="1" width="80" height="80" rx="16" stroke="url(#paint1_linear_368_635)" stroke-width="2"/>
</g>
<path d="M30.293 55H50.0977V50.8789H36.9531V50.6641L43.1641 44.7656C48.125 40 49.668 37.7539 49.668 34.4336V34.3945C49.668 29.7461 45.7227 26.3281 40.0781 26.3281C34.3555 26.3281 30.0195 30.0195 30.0195 35.1758V35.3125H34.7461V35.1758C34.8047 32.4609 36.9922 30.3711 40.1172 30.3711C42.832 30.3711 44.7266 32.168 44.7461 34.6875V34.7266C44.7461 36.8164 43.9453 38.2422 40.2539 41.8555L30.293 51.5625V55Z" fill="white"/>
<defs>
<filter id="filter0_b_368_635" x="-24" y="-24" width="130" height="130" filterUnits="userSpaceOnUse" color-interpolation-filters="sRGB">
<feFlood flood-opacity="0" result="BackgroundImageFix"/>
<feGaussianBlur in="BackgroundImage" stdDeviation="12"/>
<feComposite in2="SourceAlpha" operator="in" result="effect1_backgroundBlur_368_635"/>
<feBlend mode="normal" in="SourceGraphic" in2="effect1_backgroundBlur_368_635" result="shape"/>
</filter>
<radialGradient id="paint0_radial_368_635" cx="0" cy="0" r="1" gradientUnits="userSpaceOnUse" gradientTransform="translate(1 1) rotate(45) scale(113.137)">
<stop stop-color="#FAFAFA"/>
<stop offset="1" stop-color="#F7F7F7" stop-opacity="0"/>
</radialGradient>
<linearGradient id="paint1_linear_368_635" x1="41" y1="1" x2="41" y2="81" gradientUnits="userSpaceOnUse">
<stop stop-color="white"/>
<stop offset="1" stop-color="white" stop-opacity="0"/>
</linearGradient>
</defs>
</svg>
