<svg width="82" height="82" viewBox="0 0 82 82" fill="none" xmlns="http://www.w3.org/2000/svg">
<g filter="url(#filter0_b_368_640)">
<rect x="1" y="1" width="80" height="80" rx="16" fill="url(#paint0_radial_368_640)" fill-opacity="0.16"/>
<rect x="1" y="1" width="80" height="80" rx="16" stroke="url(#paint1_linear_368_640)" stroke-width="2"/>
</g>
<path d="M40.4023 55.4883C46.6328 55.4883 50.9297 52.0508 50.9297 47.1484V47.1094C50.9297 43.2031 48.1758 40.7422 44.0156 40.3516V40.2539C47.3945 39.5508 49.9336 37.2266 49.9336 33.7305V33.6914C49.9336 29.3164 46.1641 26.3281 40.3438 26.3281C34.6602 26.3281 30.8125 29.4922 30.4023 34.2578L30.3828 34.4922H35.0703L35.0898 34.2969C35.3438 31.875 37.375 30.332 40.3438 30.332C43.3711 30.332 45.0898 31.8164 45.0898 34.3555V34.3945C45.0898 36.8555 43.0195 38.6133 39.9141 38.6133H36.6914V42.3633H40.0312C43.625 42.3633 45.8125 44.0039 45.8125 46.9727V47.0117C45.8125 49.5703 43.6445 51.3672 40.3828 51.3672C37.082 51.3672 34.8945 49.707 34.6211 47.4219L34.6016 47.207H29.7773L29.7969 47.4414C30.1875 52.168 34.2109 55.4883 40.4023 55.4883Z" fill="white"/>
<defs>
<filter id="filter0_b_368_640" x="-24" y="-24" width="130" height="130" filterUnits="userSpaceOnUse" color-interpolation-filters="sRGB">
<feFlood flood-opacity="0" result="BackgroundImageFix"/>
<feGaussianBlur in="BackgroundImage" stdDeviation="12"/>
<feComposite in2="SourceAlpha" operator="in" result="effect1_backgroundBlur_368_640"/>
<feBlend mode="normal" in="SourceGraphic" in2="effect1_backgroundBlur_368_640" result="shape"/>
</filter>
<radialGradient id="paint0_radial_368_640" cx="0" cy="0" r="1" gradientUnits="userSpaceOnUse" gradientTransform="translate(1 1) rotate(45) scale(113.137)">
<stop stop-color="#FAFAFA"/>
<stop offset="1" stop-color="#F7F7F7" stop-opacity="0"/>
</radialGradient>
<linearGradient id="paint1_linear_368_640" x1="41" y1="1" x2="41" y2="81" gradientUnits="userSpaceOnUse">
<stop stop-color="white"/>
<stop offset="1" stop-color="white" stop-opacity="0"/>
</linearGradient>
</defs>
</svg>
