<svg width="123" height="122" viewBox="0 0 123 122" fill="none" xmlns="http://www.w3.org/2000/svg">
<g filter="url(#filter0_b_368_532)">
<rect x="1.5" y="1" width="120" height="120" rx="32" fill="url(#paint0_radial_368_532)" fill-opacity="0.16"/>
<rect x="1.5" y="1" width="120" height="120" rx="32" stroke="url(#paint1_linear_368_532)" stroke-width="2"/>
</g>
<path d="M51.793 75H71.5977V70.8789H58.4531V70.6641L64.6641 64.7656C69.625 60 71.168 57.7539 71.168 54.4336V54.3945C71.168 49.7461 67.2227 46.3281 61.5781 46.3281C55.8555 46.3281 51.5195 50.0195 51.5195 55.1758V55.3125H56.2461V55.1758C56.3047 52.4609 58.4922 50.3711 61.6172 50.3711C64.332 50.3711 66.2266 52.168 66.2461 54.6875V54.7266C66.2461 56.8164 65.4453 58.2422 61.7539 61.8555L51.793 71.5625V75Z" fill="white"/>
<defs>
<filter id="filter0_b_368_532" x="-23.5" y="-24" width="170" height="170" filterUnits="userSpaceOnUse" color-interpolation-filters="sRGB">
<feFlood flood-opacity="0" result="BackgroundImageFix"/>
<feGaussianBlur in="BackgroundImage" stdDeviation="12"/>
<feComposite in2="SourceAlpha" operator="in" result="effect1_backgroundBlur_368_532"/>
<feBlend mode="normal" in="SourceGraphic" in2="effect1_backgroundBlur_368_532" result="shape"/>
</filter>
<radialGradient id="paint0_radial_368_532" cx="0" cy="0" r="1" gradientUnits="userSpaceOnUse" gradientTransform="translate(1.5 1) rotate(45) scale(169.706)">
<stop stop-color="#FAFAFA"/>
<stop offset="1" stop-color="#F7F7F7" stop-opacity="0"/>
</radialGradient>
<linearGradient id="paint1_linear_368_532" x1="61.5" y1="1" x2="61.5" y2="121" gradientUnits="userSpaceOnUse">
<stop stop-color="white"/>
<stop offset="1" stop-color="white" stop-opacity="0"/>
</linearGradient>
</defs>
</svg>
