<svg width="122" height="122" viewBox="0 0 122 122" fill="none" xmlns="http://www.w3.org/2000/svg">
<g filter="url(#filter0_b_368_537)">
<rect x="1" y="1" width="120" height="120" rx="32" fill="url(#paint0_radial_368_537)" fill-opacity="0.16"/>
<rect x="1" y="1" width="120" height="120" rx="32" stroke="url(#paint1_linear_368_537)" stroke-width="2"/>
</g>
<path d="M61.4023 75.4883C67.6328 75.4883 71.9297 72.0508 71.9297 67.1484V67.1094C71.9297 63.2031 69.1758 60.7422 65.0156 60.3516V60.2539C68.3945 59.5508 70.9336 57.2266 70.9336 53.7305V53.6914C70.9336 49.3164 67.1641 46.3281 61.3438 46.3281C55.6602 46.3281 51.8125 49.4922 51.4023 54.2578L51.3828 54.4922H56.0703L56.0898 54.2969C56.3438 51.875 58.375 50.332 61.3438 50.332C64.3711 50.332 66.0898 51.8164 66.0898 54.3555V54.3945C66.0898 56.8555 64.0195 58.6133 60.9141 58.6133H57.6914V62.3633H61.0312C64.625 62.3633 66.8125 64.0039 66.8125 66.9727V67.0117C66.8125 69.5703 64.6445 71.3672 61.3828 71.3672C58.082 71.3672 55.8945 69.707 55.6211 67.4219L55.6016 67.207H50.7773L50.7969 67.4414C51.1875 72.168 55.2109 75.4883 61.4023 75.4883Z" fill="white"/>
<defs>
<filter id="filter0_b_368_537" x="-24" y="-24" width="170" height="170" filterUnits="userSpaceOnUse" color-interpolation-filters="sRGB">
<feFlood flood-opacity="0" result="BackgroundImageFix"/>
<feGaussianBlur in="BackgroundImage" stdDeviation="12"/>
<feComposite in2="SourceAlpha" operator="in" result="effect1_backgroundBlur_368_537"/>
<feBlend mode="normal" in="SourceGraphic" in2="effect1_backgroundBlur_368_537" result="shape"/>
</filter>
<radialGradient id="paint0_radial_368_537" cx="0" cy="0" r="1" gradientUnits="userSpaceOnUse" gradientTransform="translate(1 1) rotate(45) scale(169.706)">
<stop stop-color="#FAFAFA"/>
<stop offset="1" stop-color="#F7F7F7" stop-opacity="0"/>
</radialGradient>
<linearGradient id="paint1_linear_368_537" x1="61" y1="1" x2="61" y2="121" gradientUnits="userSpaceOnUse">
<stop stop-color="white"/>
<stop offset="1" stop-color="white" stop-opacity="0"/>
</linearGradient>
</defs>
</svg>
