<svg width="123" height="122" viewBox="0 0 123 122" fill="none" xmlns="http://www.w3.org/2000/svg">
<g filter="url(#filter0_b_368_552)">
<rect x="1.5" y="1" width="120" height="120" rx="32" fill="url(#paint0_radial_368_552)" fill-opacity="0.16"/>
<rect x="1.5" y="1" width="120" height="120" rx="32" stroke="url(#paint1_linear_368_552)" stroke-width="2"/>
</g>
<path d="M61.7539 75.4883C67.8281 75.4883 72.2812 71.4062 72.2812 65.7227V65.6836C72.2812 60.3906 68.4727 56.4844 63.043 56.4844C59.2148 56.4844 56.4023 58.4375 55.2891 61.0156H55.1914C55.1914 60.7031 55.1914 60.4102 55.2109 60.1172C55.4062 54.7852 57.3008 50.4492 61.832 50.4492C64.3516 50.4492 66.0898 51.6992 66.832 53.6328L66.9102 53.8086H71.9102L71.8711 53.5938C70.9727 49.3359 67.0859 46.3281 61.8711 46.3281C54.6836 46.3281 50.3672 51.8945 50.3672 61.2109V61.25C50.3672 71.1328 55.5234 75.4883 61.7539 75.4883ZM56.0508 65.8008V65.7812C56.0508 62.6367 58.5117 60.3711 61.7344 60.3711C64.957 60.3711 67.3203 62.6562 67.3203 65.8594V65.8984C67.3203 68.9453 64.8203 71.3672 61.6758 71.3672C58.5312 71.3672 56.0508 68.9258 56.0508 65.8008Z" fill="white"/>
<defs>
<filter id="filter0_b_368_552" x="-23.5" y="-24" width="170" height="170" filterUnits="userSpaceOnUse" color-interpolation-filters="sRGB">
<feFlood flood-opacity="0" result="BackgroundImageFix"/>
<feGaussianBlur in="BackgroundImage" stdDeviation="12"/>
<feComposite in2="SourceAlpha" operator="in" result="effect1_backgroundBlur_368_552"/>
<feBlend mode="normal" in="SourceGraphic" in2="effect1_backgroundBlur_368_552" result="shape"/>
</filter>
<radialGradient id="paint0_radial_368_552" cx="0" cy="0" r="1" gradientUnits="userSpaceOnUse" gradientTransform="translate(1.5 1) rotate(45) scale(169.706)">
<stop stop-color="#FAFAFA"/>
<stop offset="1" stop-color="#F7F7F7" stop-opacity="0"/>
</radialGradient>
<linearGradient id="paint1_linear_368_552" x1="61.5" y1="1" x2="61.5" y2="121" gradientUnits="userSpaceOnUse">
<stop stop-color="white"/>
<stop offset="1" stop-color="white" stop-opacity="0"/>
</linearGradient>
</defs>
</svg>
