<svg width="24" height="24" viewBox="0 0 24 24" fill="none" xmlns="http://www.w3.org/2000/svg">
<path d="M14.1221 8.09683L18.259 3.95778L17.7707 3.47359C17.1398 2.84214 16.0373 2.84214 15.4063 3.47359L13.6383 5.24301C13.3217 5.55985 13.1478 5.98045 13.1478 6.4267C13.1478 6.87296 13.3217 7.29356 13.636 7.60929L14.1221 8.09683Z" fill="#616161"/>
<path d="M6.62186 14.6301C5.9909 13.9986 4.88839 13.9986 4.25742 14.6301L2.48939 16.3995C2.17391 16.7163 2 17.1369 2 17.5832C2 18.0295 2.17391 18.4501 2.49162 18.768L2.97877 19.25L7.10679 15.1187L6.62186 14.6301Z" fill="#616161"/>
<path d="M19.7662 5.47062L19.3716 5.07568L15.238 9.2125L15.9626 9.93655C16.0685 10.0425 16.1253 10.182 16.1253 10.3315C16.1253 10.481 16.0674 10.6204 15.9626 10.7264L9.73542 16.9584C9.52473 17.1682 9.15797 17.1693 8.94727 16.9584L8.22267 16.2333L4.09576 20.3723L4.4904 20.7672C4.78024 21.0573 5.87941 22 7.89715 22C9.69863 22 12.6416 21.2057 16.4252 17.4203C23.9756 9.8618 19.9457 5.65024 19.7662 5.47062Z" fill="#616161"/>
</svg>
